<svg xmlns="http://www.w3.org/2000/svg" viewBox="0 0 511.8 65.15"><defs><radialGradient id="新增漸層色票_4" cx="41.54" cy="49.08" r="13.79" gradientUnits="userSpaceOnUse"><stop offset=".17" stop-color="#8cc63f"/><stop offset="1" stop-color="#006837"/></radialGradient><radialGradient id="新增漸層色票_3" cx="35.92" cy="17.05" r="28.79" gradientUnits="userSpaceOnUse"><stop offset="0" stop-color="#16367d"/><stop offset="1" stop-color="#16153f"/></radialGradient><linearGradient id="未命名漸層_63" y1="42.43" x2="128.31" y2="42.43" gradientUnits="userSpaceOnUse"><stop offset="0" stop-opacity="0"/><stop offset=".5"/><stop offset="1" stop-opacity="0"/></linearGradient><style>.cls-3{fill:url(#新增漸層色票_3)}</style></defs><g id="txt"><path fill="url(#未命名漸層_63)" d="M0 41.43h128.31v2H0z"/><circle cx="42.99" cy="51.56" r="13.59" fill="url(#新增漸層色票_4)"/><path class="cls-3" d="M45.51 19.8a4.32 4.32 0 01-3.8-1.65 1.07 1.07 0 01.36-1.75 3.33 3.33 0 011.54-.4 9.13 9.13 0 005.69-1.67c.68-.42 1.58-.27 2.34-.62A2.48 2.48 0 0053 12.3c1.07-2.16.47-4.38.72-6.55a22.63 22.63 0 000-3.19c0-.61.21-.81.81-.79a12.63 12.63 0 002.13-.12 1.06 1.06 0 011.24.56c.1 3.27-.83 6.45-.9 9.79 1-.26 2.06-.5 3.08-.77a1.43 1.43 0 00.36-.2c1.32-.59 2.64-1.15 3.95-1.77.5-.23 1.05-.43 1.28-1a.8.8 0 01.59-.41c1.23.09 2.56-.59 3.65.34.54.46 1.18.15 1.69.48v2c0 .65-.21.82-.81.79a8.82 8.82 0 00-3.06.31c-3 .89-5.94 2-8.91 3-.66.22-1.05.9-1.76.92s-.72.31-.75.79a9.29 9.29 0 01-1.08 3.3 65.25 65.25 0 00-2.73 7c-.11.33.07.82-.25 1-1.33.78-1.78 2.27-2.75 3.34a4.88 4.88 0 01-2 1.31 23 23 0 01-4.7.76c-.52 0-1.05.23-1.57 0-.12-.37.23-.4.4-.54 2.36-1.85 4.11-4.3 6.14-6.47a7.7 7.7 0 001.47-3.4c.35-1.34 1-2.57 1.42-3.86a.81.81 0 00.31-1.16.4.4 0 00-.6-.21c-1.59.72-3.37 1.14-4.86 2.25z"/><path class="cls-3" d="M57.34 24.34a14.45 14.45 0 013.91-.21c1.52.34 3.18.44 4.54 1.39A5.72 5.72 0 0069 27a.67.67 0 00.37.49 9.07 9.07 0 003.24 1.66.74.74 0 00.21 0c1.52 1.82 3 3.63 4.56 5.46a2.35 2.35 0 01.3 2.67 3.35 3.35 0 01-3.62 2c-2.11.22-3.14-1.44-4.39-2.62-1.52-1.43-2.5-3.38-4.32-4.52-1.17-1.41-2.93-1.57-4.5-2.13l-.43-.23a.35.35 0 00-.4-.21 13.61 13.61 0 01-4.52-3.41 10.6 10.6 0 000-1.26c0-.49.25-.6.62-.66l.4.07c.15.18.32.14.5.05h.28zm-28.55-8.17c-1.46 1-2.81 2.2-4.61 2.59-.18 0-.44.22-.49-.13 0-.08.17-.2.26-.3 2.29-.79 3.82-2.52 5.22-4.37a1 1 0 00-.08-1.19c-.32-.3-.71 0-1.06.16-.91.56-1.8 1.15-2.76 1.62A42.16 42.16 0 0018.45 19a12.24 12.24 0 01-3.73 1.88A13.66 13.66 0 0010.19 23a15.9 15.9 0 01-3.68 2.19A2.68 2.68 0 013 22.61c0-1.24-.29-2.48.77-3.5a1.59 1.59 0 011.37-.62 5.94 5.94 0 005.45-2.09c1.55-1.63 3.57-2.82 4.91-4.68C16.68 10 18.26 8.65 19.57 7a5.87 5.87 0 001.55-4.88c-.11-.69-.39-1.61.63-2l.19-.06.41-.06L24 .16l.23.23a.34.34 0 00.26.34l.42.47c.83 1 1.62 2 2.49 2.92a1.57 1.57 0 01.38 1.75C27.05 8 25.08 9 23.48 10a38.57 38.57 0 01-6.29 3.26c-3 .64-4.59 3.27-6.94 4.85A12 12 0 0013.19 17l4.08-1.19A23.17 23.17 0 0022.15 14a39.24 39.24 0 006-2.86c.25-.16.83-.33.47-.75s-.31-1-.39-1.47c.2-.71 1.05-.32 1.37-.83 1-.12 1.61.57 2.34 1a3.42 3.42 0 001.49 1 3.9 3.9 0 012.81 4.31c0 .95-.36 1.53-1.45 1.46a15.63 15.63 0 00-2.65 0c-1.07.12-2.17-.28-3.19.25a.19.19 0 00-.16.06zm-12.62 6.18c.31 0 .63-.05.95-.05 1.23 0 1.46.29 1.41 1.53a3.54 3.54 0 00-.73 1.72 77.13 77.13 0 00.13 8.6c0 .34.05.72.47.7.82-.05 1.71.31 2.46-.32A31.7 31.7 0 0126.58 33a1.55 1.55 0 001.56-1.73 13.28 13.28 0 011.3-4.47l.18-.22c.32-.7.94-1.22 1.11-2 .11-.46 0-.61-.47-.68a6 6 0 00-3.44.71c-2.06 1-4 2.15-6 3.25-.26.14-.52.33-.79.14s-.22-.59-.12-.88a3.73 3.73 0 00.33-1.86.28.28 0 000-.2l.06-.05v-.06a4.39 4.39 0 01.93-.19 7 7 0 005.06-2.06c.42-.4 1.17-.44 1.62-.81 2.4-2 5.18-1.2 7.86-1.19a.75.75 0 01.52.34l.06.4a1 1 0 00.2.85 9.34 9.34 0 01-.55 3.23c-.42 1-1.42 1.64-1.5 2.78 0 .06-.08.13-.14.15-1.35.4-1.45 1.75-2 2.71s0 1.52 1.05 1.48a1.1 1.1 0 011 .31 2 2 0 01-1.17 3.27c-3.52.48-7 1-10.6 1.33-.74.07-2-.27-2 1.18 0 .11-.32.25-.51.31a4.12 4.12 0 01-2 .15 11 11 0 00-3-.08 3.86 3.86 0 01-1.25-.18c-.58-.23-1.11-.4-1.18-1.16s.46-1 1-1.19a1 1 0 00.51-1.34 15.68 15.68 0 01-.2-7.21 5.26 5.26 0 011.73-3.61 1 1 0 00.24-1 1.32 1.32 0 01.28-1.09z"/><path class="cls-3" d="M20.18 25.3v-.2a.28.28 0 010 .2z"/><path d="M85.85 24.49v5.56H92a5.21 5.21 0 00.51-.39c.42-.39.7-.59.84-.59a3.92 3.92 0 011.13.68c.4.27.6.45.6.52v.05a15.51 15.51 0 001.81-.8 3.4 3.4 0 01-.71-.64 4.84 4.84 0 01-.91-1.3l-1.11.05-.37-.69c1.07.1 2.11.14 3.08.14h2.53l.48-.37.19-.13a2.2 2.2 0 01-.91-.12c-.51-.11-.76-.52-.76-1.25v-.91h-1.64a2.53 2.53 0 01-1.3 2 5 5 0 01-2 .55l-.09-.14a2.36 2.36 0 001.36-2.44 3.75 3.75 0 00-.18-1.12 15.84 15.84 0 012.45.65h1.16l.56-.45a1.23 1.23 0 01.62-.26 2.85 2.85 0 011.09.44c.46.29.72.5.72.68s-.14.23-.42.37-.48.25-.48.4 0 .3.18.33a1.8 1.8 0 00.72.08h.46a.62.62 0 00.56-.31c.14-.21.3-.5.53-.85l.26.07.09.28a1 1 0 00.32.66c.28.25.42.41.42.52 0 .29-.25.5-.76.63a8.33 8.33 0 01-1.88.21l.53.3c.56.39.84.63.84.73s-.21.2-.63.22a1.85 1.85 0 00-.74.14 5.36 5.36 0 01-1.51 1.25 24.16 24.16 0 003.89.49l-.09.26a1.3 1.3 0 00-.93.68c.14.11.33.25.51.41.51.43.79.7.79.8s-.14.27-.37.27h-7.1v1.39H99l.67-.48a1.46 1.46 0 01.67-.34 4.13 4.13 0 011.32.5c.74.43 1.13.73 1.13.89s-.18.3-.51.48-.39.39-.39.55v.57L102 39c0 .19-.39.33-1.16.44h-.74c-.41 0-.62-.16-.62-.48v-.29H87.22V39c0 .19-.37.33-1.07.44h-.65c-.5 0-.74-.16-.74-.48a6.55 6.55 0 00.1-1v-3.79c0-.39 0-.85-.1-1.41a26.84 26.84 0 012.67.77h2.41a8.4 8.4 0 00.09-1v-.36H86c-1.32 0-2.25 0-2.81.07l-.37-.69a25.6 25.6 0 003.18.14h14.38a5.84 5.84 0 00.67-.59 6.24 6.24 0 01-.79-.17 11.59 11.59 0 01-2.32-.77l-.58.21a19.76 19.76 0 01-4.07.88l-.09-.29c.41-.1.83-.21 1.25-.35h-8.6v.21c0 .21-.32.36-1 .44a5.46 5.46 0 01-.65.06c-.42 0-.62-.16-.62-.5 0-.54.06-1.07.06-1.6v-3.76c0-.75 0-1.5-.06-2.23a24 24 0 012.73.76h4.77l.46-.37c.42-.36.68-.53.79-.53a3.61 3.61 0 011.09.64c.37.25.56.41.56.48a.25.25 0 01-.28.28h-6q.42.11.84.18c.46.13.69.25.69.38s-.14.16-.39.17a1.31 1.31 0 00-.44.09l-.19.22h2.37l.41-.29a1.7 1.7 0 01.68-.41 4 4 0 01.9.5c.3.22.46.36.46.41 0 .2-.09.29-.28.29h-2.2c0 .46-.07.85-.11 1.17h.67a3.38 3.38 0 00.46-.39 2.45 2.45 0 01.63-.44 1.81 1.81 0 01.79.46c.37.32.55.52.55.59s-.09.26-.25.26h-3a1.17 1.17 0 01-.12.2 18.2 18.2 0 011.88.3c.37.11.58.25.58.41a.91.91 0 01-.42.73 1.11 1.11 0 01-.76.25.74.74 0 01-.67-.41 3.22 3.22 0 00-.88-.83 1.45 1.45 0 01-.35.35 4.64 4.64 0 01-1.18.68A11.44 11.44 0 0186 30v-.16a6.51 6.51 0 001.27-.61 2.63 2.63 0 00.73-.73 2.43 2.43 0 00.44-.82c-1 0-1.74 0-2.15.08l-.37-.7a19.26 19.26 0 002.61.14c0-.32.07-.71.1-1.17h-1l-.17.12a8.71 8.71 0 01-1.32.7l-.14-.13a7.22 7.22 0 00.67-1.1 5.76 5.76 0 00.37-1.13zM99.52 36.6V36h-3.27a3 3 0 01-1.46-.27.77.77 0 01-.53-.76V34H92a3.82 3.82 0 01-.21.36 3.73 3.73 0 01-1.53 1.1 11.06 11.06 0 01-2.55.84l-.25-.22a4.11 4.11 0 001.25-.76 3.16 3.16 0 00.88-1 1.49 1.49 0 00.09-.3h-2.5v2.58zm0 1.6v-1.11h-12.3v1.11zm-5.26-6.06h-1.9v.36a3.56 3.56 0 01-.14 1h2zm3.08-3.62a2.14 2.14 0 00.7.3 8.41 8.41 0 001.39-1.28h-3.57a5.76 5.76 0 001.48.98zm-1 6.13c0 .15.14.22.47.22h2.71V34h-3.18zM114 23.82c.58.39.88.66.88.8s-.23.25-.65.32-.81.21-.88.32a21.22 21.22 0 01-2.69 3.74 11.35 11.35 0 012.23 1.84 4.92 4.92 0 01.72 1.23 3.69 3.69 0 01.3 1.39 1.78 1.78 0 01-.47 1.37 3 3 0 01-1.09.84 2.52 2.52 0 01-1 .28c-.18 0-.35-.19-.44-.59s-.72-.76-1.64-1.08v4.59c0 .22-.4.4-1.16.52h-.74c-.49 0-.72-.2-.72-.56 0-.64.09-1.24.09-1.87V25.81a19.71 19.71 0 00-.18-2.58 29.16 29.16 0 013.26.91h1.07c.32-.31.62-.56.88-.77a1.27 1.27 0 01.67-.28 4.56 4.56 0 011.56.73zm-4.72 10a10.58 10.58 0 001.36.09 1.49 1.49 0 00.75-.16 1.57 1.57 0 00.23-.9 4.49 4.49 0 00-.37-1.9 7.66 7.66 0 00-1.42-1.95 23 23 0 001.37-4.4h-1.9zm7.41-2.28h6.35a8.82 8.82 0 00.74-.68 3.88 3.88 0 011-.79 2.74 2.74 0 011.32.77c.63.5 1 .8 1 .91s-.16.27-.46.27h-4v4.74c0 .34.1.53.33.57a6.64 6.64 0 001 0 1.06 1.06 0 00.78-.27 13.35 13.35 0 00.84-2.29l.46.07L126 36a1.3 1.3 0 00.56 1.07c.32.27.51.52.51.75a.76.76 0 01-.51.7 6.92 6.92 0 01-2.73.41h-1.32a5.53 5.53 0 01-1.3-.15 1.22 1.22 0 01-1.18-1.32V32h-1.39a8.67 8.67 0 01-.74 3 6.88 6.88 0 01-1.21 1.67 7.24 7.24 0 01-2 1.25 21.65 21.65 0 01-3.47 1.23l-.28-.43a9.09 9.09 0 002-1 7.09 7.09 0 001.65-1.53 5.69 5.69 0 00.92-1.68A7.57 7.57 0 00116 32c-.95 0-1.64 0-2.08.07l-.35-.7a22.83 22.83 0 003.14.15zm4.4-8.13c.56 0 .86.14.86.34s-.19.18-.54.3-.55.29-.55.46v1.18h2.34c.3-.23.55-.43.76-.57a1.31 1.31 0 01.7-.41 4.84 4.84 0 011.53.78c.71.47 1.08.79 1.08 1s-.18.25-.53.28a2.29 2.29 0 00-.72.07 21.45 21.45 0 01-2.36 1.07c.55.46.85.73.85.84s-.13.28-.37.28h-6.34c-1.32 0-2.25 0-2.8.05l-.37-.69a23.68 23.68 0 003.17.14h3.08a4.84 4.84 0 00.72-.62 3.22 3.22 0 01.9-.7 1.16 1.16 0 01.46.15 12.53 12.53 0 00.63-1.2h-7.83a9.32 9.32 0 01-.14 1 1.58 1.58 0 01-.76 1 1.51 1.51 0 01-.68.16 1.84 1.84 0 01-1.13-.32.79.79 0 01-.42-.73c0-.14.23-.34.74-.57a4.47 4.47 0 001.26-.75 3.29 3.29 0 00.74-1.19l.44.07v.91h2.64v-1.18a8.26 8.26 0 00-.16-1.47q1.43.11 2.82.3z" fill="#202b6d"/><path d="M60.41 47.29h2.83l3.7 5.43v-5.43h2.86v9.82h-2.86l-3.68-5.39v5.39h-2.85zm10.72 0h9.23v2.42h-3.1v7.4h-3v-7.4h-3.1zm17 0h3v5.85a5 5 0 01-.27 1.65 3.68 3.68 0 01-.86 1.35 3.46 3.46 0 01-1.22.81 6.11 6.11 0 01-2.13.33 12.69 12.69 0 01-1.56-.1 4.12 4.12 0 01-1.42-.4 3.45 3.45 0 01-1-.85A3 3 0 0182 54.8a5.76 5.76 0 01-.28-1.66v-5.85h3v6a1.7 1.7 0 00.45 1.26 1.91 1.91 0 002.46 0 1.67 1.67 0 00.45-1.26zm5.05 0h3v3.44h3.32v-3.44h3v9.82h-3v-4h-3.28v4h-3zm10.72 5.19h4v2.11h-4zm4.28-5.19h3.37l2 3.31 2-3.31h3.35L115.05 53v4.11h-3V53zm11.67 0h3v7.4h4.74v2.42h-7.78z" fill="gray"/><path fill="#fff" d="M51.68 48.45h-5.35v-5.8h-6.68v5.8H34.3v6.68h5.35v5.35h6.68v-5.35h5.35v-6.68z"/><path d="M153.39 41.23h-2v-.86h-13.85v.86h-2V22.11h17.81zm-2-2.6V23.87h-13.85v14.76zm-6.65-3.05a47.54 47.54 0 01-6.55 2l-.19-1.8a41.23 41.23 0 006.69-1.89zm6.38-.87C150.76 36.89 150 38 148.8 38c-.73 0-1.39-.51-2-1.53a11.93 11.93 0 01-2 1.85L143.53 37a16.36 16.36 0 002.52-2.49 31.47 31.47 0 01-1.12-6.88h-6.63v-1.55h6.53v-1.72l1.83-.05a11.49 11.49 0 00.07 1.77h2.51a7.88 7.88 0 00-1.92-.83l1.08-1.11a10.83 10.83 0 012 .94l-.95 1h1.23v1.57h-3.93a23.59 23.59 0 00.64 4.72 25.2 25.2 0 001.68-4.12l1.57.74a19.25 19.25 0 01-2.6 5.82 2.55 2.55 0 00.44.89c.18.22.3.33.37.33s.23-.2.4-.61a7.83 7.83 0 00.41-1.93zm-7-1.18h-5.32v-4.74h5.32zM142.28 32v-1.59h-1.68V32zm34.1 8.63H157v-2h5.66a51.28 51.28 0 00-2.79-10.27l1.55-1.08h-3.63v-2h8.07a17.3 17.3 0 00-1.46-3.09l2.14-.73a27.81 27.81 0 011.68 3.82h7.56v2h-4l1.63 1.06a55.45 55.45 0 01-2.65 10.29h5.57zm-4.81-13.32h-9.81a61.47 61.47 0 013 11.35h3.94a60.18 60.18 0 002.87-11.35zm27.01 13.62H179.5v-1.32h8.5v-.93h-7.14v-1.21H188v-.79q-1.72.06-3.66.06h-2.57l-.27-1.21a9.41 9.41 0 003.25-1.25h-2.23V33h13v1.24h-1.06a20 20 0 012 1.93l-1.49 1-.66-.74-4.29.2v.87h7.29v1.21H190v.93h8.54zm-.07-17H190v.82h7.54V26h-17v-1.22H188V24h-8.46v-1.32H188v-.88h2v.88h8.55zm-.25 10.11h-1.93v-1.89h-14.54v2h-2v-3.31h18.46zm-2-4.08h-14.42v-3.24h14.42zm-1.93-1.2v-.87h-10.54v.87zm-.85 5.47h-5.84a8.56 8.56 0 01-2.29 1.27l7.75-.17a4.62 4.62 0 00-.7-.55zm12.02-.1a57.87 57.87 0 01-2.5 7.33l-1.66-1.29a42.78 42.78 0 002.4-7.1zm-.22-3.93l-1.41 1.46a16.77 16.77 0 00-2.49-2.74l1.32-1.44a15.53 15.53 0 012.58 2.72zm.38-5.71l-1.41 1.36a16.58 16.58 0 00-2.58-2.72l1.4-1.38a13.73 13.73 0 012.59 2.74zm1.34 5.39a13.54 13.54 0 01-.84 2.65l-1.2-.31a15.75 15.75 0 00.88-2.63zm3.7-.93l-1.14.42a1.88 1.88 0 00-.13-.49c-.78.07-1.95.21-3.49.45l-.4-1.25a13.19 13.19 0 002.06-1.92c-.87.09-1.35.13-1.44.13l-.45-1.21a12.08 12.08 0 002.54-3.42l1.29.49a17.8 17.8 0 01-2.1 2.85 4.44 4.44 0 001.2-.11l.71-1.13 1.23.64a17.58 17.58 0 01-3 3.5 8.12 8.12 0 001.45-.19c-.09-.3-.16-.51-.2-.64l1.07-.38a22.83 22.83 0 01.79 2.31zm9.58 8.7a5.14 5.14 0 01-.69 2.91 2.16 2.16 0 01-1.77.75h-5.16l-.49-1.43h5.37c.31 0 .51-.29.6-.89h-12.26l1.22-3.72h10.43v-.93H206V33h13.42v3.61h-10.69l-.38 1zm-11.58-5.3l-1.21.25a14 14 0 00-.25-2.63l1.1-.22a12.77 12.77 0 01.35 2.6zm1.89-.49l-1.16.31a11.24 11.24 0 00-.45-2.31l1.1-.29a22.22 22.22 0 01.5 2.29zm5.32-7.65h-5.27V23h1.7a4.18 4.18 0 00-.34-1l1.54-.4a6.86 6.86 0 01.57 1.34h1.83zm-.66 1.93H211V25h4.23zm0 1.89H211V26.9h4.23zm-.05 4.17H211v-3.43h4.18zm-1.43-1.2v-1.08h-1.36V31zm3.38-.91a14.47 14.47 0 01-.47 2.59l-1.18-.38a10.61 10.61 0 00.53-2.45zm3.74-1.07l-1.21.43-.15-.56c-1.23.19-2.43.34-3.59.45l-.3-1.21a11.1 11.1 0 002.19-2l-1.75.11-.4-1.2a10.63 10.63 0 002.62-3.35l1.32.61a21.76 21.76 0 01-2.11 2.6 5.65 5.65 0 001.3-.11 6.67 6.67 0 00.79-1.18l1.22.59a15.86 15.86 0 01-3.23 3.8 14 14 0 001.47-.21 2.68 2.68 0 00-.25-.58l1.17-.46a12.73 12.73 0 01.91 2.3zM219 32.44l-1.22.27a11.34 11.34 0 00-.24-2.59l1.13-.15a13.1 13.1 0 01.33 2.47zm2-.22l-1.23.36a23.39 23.39 0 00-.6-2.5l1.21-.31a14.42 14.42 0 01.62 2.45zm22.35 7.57l-1.19 1.61a19.25 19.25 0 01-8.58-11.2 20.18 20.18 0 01-8.68 11l-1.18-1.73q6.81-4.44 8.3-10.89h-7.84v-2h8.12c.16-1.56.25-3.15.27-4.76h2c0 1.93-.09 3.52-.2 4.76h8.71v2H235a17.05 17.05 0 008.35 11.21zm22.14-1.92h-8.55v1.38a1.87 1.87 0 01-.34 1.19 1.68 1.68 0 01-.87.59 7.84 7.84 0 01-2 .16h-1.54l-.64-1.81h2.94c.26 0 .4-.12.4-.37v-1.14h-8.82V36.3h8.82v-1a21.87 21.87 0 003.08-.87h-8.27V33h11.85v1.43a33.48 33.48 0 01-4.63 1.7v.13h8.55zm-.34-3.27h-1.87v-2.53h-14.9v2.51h-2V30.5h1.38l-.41-8a15.53 15.53 0 004.34-.85l.92 1.55a18 18 0 01-3.3.68l.07 1.19h2.9v1.44h-2.83l.05 1.26h2.78v1.44h-2.7l.07 1.28h12.26l.05-1.28h-3v-1.43h3.07l.07-1.26H259v-1.44h3.18l.07-1.19h-3.41v-1.55h5.34l-.36 8.16h1.34zm-6.76-12.29a6.66 6.66 0 01-1.45 1.38 13.3 13.3 0 011 1l-1.18 1a7.74 7.74 0 00-1.11-1.11 18.21 18.21 0 01-2.25 1.13l-.94-1.25a10.15 10.15 0 001.89-.89 11.68 11.68 0 00-1.22-.92l1.07-1.08 1.49 1.06a6 6 0 001.15-1zm.11 7l-1.19 1a11.21 11.21 0 00-1.51-1.43 18.52 18.52 0 01-2.27 1.25l-.92-1.13a17.34 17.34 0 001.92-1 9.09 9.09 0 00-1.47-1l1.08-1.09c.39.23 1 .62 1.73 1.18a12 12 0 001.25-1.18l1.35.8a12.34 12.34 0 01-1.38 1.29 15.31 15.31 0 011.41 1.33zm19.97-6.08h-4.34a2.71 2.71 0 01-.34.77h4.15v1.1h-2.1a3.9 3.9 0 01-.07.93h2.41v1.11H276c1.17.57 1.91.94 2.2 1.11l-.82 1.19h.82v1.33h-7.3c-1.21 0-1.82-.66-1.82-2v-5.54h-.68V22h10.07zm9.35 9.59h-6.68v1h5.15v7.44h-2v-.53h-12.41v.53H270v-7.49h5.27a2.7 2.7 0 00.11-1h-6.92v-1.24h19.37zM274.2 25.1h-1.12a8.11 8.11 0 01-.71.7l-1.18-.87a6.24 6.24 0 001.33-1.7H271v5.69c0 .35.19.52.56.52h.53l-.8-1.25a4.58 4.58 0 002.11-1.05h-1.93V26h2.61a3.58 3.58 0 00.12-.9zm10.13 14.28v-2.55h-3.5c-1 0-1.47-.43-1.47-1.27V35h-2.59a4.5 4.5 0 01-2 1.91 4.71 4.71 0 01-1.93.58l-.78-1.49a4.09 4.09 0 002.54-1h-2.72v4.38zm-7.26-9.94a20 20 0 00-2.28-1.34 5.23 5.23 0 01-2.16 1.34zm5.72 9.19h-9.25v-1.09h9.25zm-3.43-4.86v-1h-2.14a5.33 5.33 0 01-.11 1zm8.31-8.63h-2.34a1.56 1.56 0 01-1-.23 1.06 1.06 0 01-.28-.85v-.77h-2.51a3.07 3.07 0 01-1.68 2.43l-1.4-1.07A2.36 2.36 0 00280 22h5.8v1.65c0 .15.08.22.26.22h1.61zm.08 4.68l-1.08 1.27a25.81 25.81 0 00-3.14-1.52 17 17 0 01-4.19 1.43l-.74-1.49a12.58 12.58 0 002.9-.73c-1.15-.37-1.87-.59-2.16-.67l.89-.94H279v-1.26h7.75v1.25a9.4 9.4 0 01-1.54 1.38c.86.4 1.73.82 2.54 1.28zm-3.42 5.94V35h-3.19v.36c0 .27.15.4.45.4zm.22-8.6h-3.12l2.05.7a11.67 11.67 0 001.07-.7zM310 37.87h-8.54v1.38a1.87 1.87 0 01-.35 1.19 1.61 1.61 0 01-.87.59 7.84 7.84 0 01-2 .16h-1.53l-.64-1.81H299c.27 0 .4-.12.4-.37v-1.14h-8.81V36.3h8.81v-1a21.87 21.87 0 003.08-.87h-8.26V33h11.85v1.43a34 34 0 01-4.63 1.7v.13H310zm-.34-3.27h-1.87v-2.53h-14.87v2.51h-2V30.5h1.38l-.4-8a15.6 15.6 0 004.34-.85l.91 1.55a17.92 17.92 0 01-3.29.68l.06 1.19h2.9v1.44H294v1.26h2.78v1.44h-2.69l.06 1.28h12.27v-1.28h-3v-1.43h3.08l.06-1.26h-3.14v-1.44h3.19l.06-1.19h-3.4v-1.55h5.34l-.36 8.16h1.33zm-6.76-12.29a6.83 6.83 0 01-1.44 1.38c.36.32.69.65 1 1l-1.19 1a7.74 7.74 0 00-1.11-1.11 18.21 18.21 0 01-2.25 1.13l-.91-1.22a10.78 10.78 0 001.89-.89 11.06 11.06 0 00-1.23-.92l1.08-1.08 1.49 1.06a6.31 6.31 0 001.15-1zm.11 7l-1.18 1a11.21 11.21 0 00-1.52-1.43 17.82 17.82 0 01-2.27 1.25l-.89-1.13a17.32 17.32 0 001.91-1 8.28 8.28 0 00-1.47-1l1.08-1.09c.39.23 1 .62 1.73 1.18a11 11 0 001.25-1.18l1.36.8a14.35 14.35 0 01-1.38 1.29 14 14 0 011.37 1.33zm15.05-.64a8.8 8.8 0 011.78 4.81 3.62 3.62 0 01-.6 2.22 2.9 2.9 0 01-2.41.79h-.58l-.55-1.89a6 6 0 00.73.05c.68 0 1.09-.08 1.25-.26a1 1 0 00.22-.68A7.53 7.53 0 00316 29a38.68 38.68 0 001.62-5h-2.15v17.15h-1.94V22h6.08v1.81a55.72 55.72 0 01-1.55 4.86zm14.34 8.16a6 6 0 01-.65 3.42 3.11 3.11 0 01-2.54.82 3.18 3.18 0 01-1.91-.42 1.75 1.75 0 01-.53-1.46v-5.95h-1.9a8.08 8.08 0 01-5.43 8.11l-1.22-1.63c3.15-1.19 4.72-3.09 4.72-5.72a6.76 6.76 0 00-.05-.76h-2.56v-1.85h11.74v1.85h-3.33v5.52c0 .26.14.38.41.38.6 0 1-.11 1.12-.33a7.76 7.76 0 00.21-2.54zm-.51-8.35H330v-2.74h-7.68v2.74h-1.92v-4.66h4.6a7.3 7.3 0 00-.83-1.86l2-.32a11.26 11.26 0 01.89 2.18h4.83zm-2.56 1H323v-1.9h6.37zm11.06-.73a9.4 9.4 0 011.6 5 3.11 3.11 0 01-.74 2.3 3.5 3.5 0 01-2.63.63l-.59-2a3.21 3.21 0 001.64-.16q.33-.24.33-1.2a7.22 7.22 0 00-1.63-4.32 25.89 25.89 0 001.53-4.83h-2.24v17.08h-1.92v-19h6.13v1.89a31.06 31.06 0 01-1.48 4.61zm6.09-6.58c-.15.68-.39 1.55-.72 2.6l-.49 1.5v15h-1.91V29.82a12.62 12.62 0 01-.83 1.44l-1.09-1.91a21.89 21.89 0 003.21-7.73zm8.08 5.39h-1.79V39.1a2.56 2.56 0 01-.29 1.35 1.38 1.38 0 01-.75.65 6.87 6.87 0 01-1.88.16h-1.08l-.77-1.9c.52 0 1 .06 1.49.06a2.73 2.73 0 001.12-.13.53.53 0 00.18-.46V27.56h-4.77v-1.95h4.77v-3.79h1.95v3.79h1.79zm-4.64 7.64l-1.76.74a42 42 0 00-1.91-6l1.63-.73a40.24 40.24 0 012.04 5.99zm15.28-9.55h-7.8v-1.8h3a12.82 12.82 0 00-.76-1.68l2-.49a11.68 11.68 0 01.92 2.17h2.67zm-.53 3.23H358V27.1h6.67zm0 3.19H358v-1.76h6.67zm0 8.63h-1.94v-.89H360v1.42h-1.89v-7.7h6.63zm-1.92-2.7v-2.64H360V38zm14.37 1.55l-.94 1.8a16.87 16.87 0 01-5.1-2.61 20.21 20.21 0 01-4.84 2.68l-1.13-1.7a13.77 13.77 0 004.55-2.29 15 15 0 01-2.81-4.59h-1V31h9.71v1.83a17.31 17.31 0 01-3 4.56 13.19 13.19 0 004.56 2.16zm-.25-9.84H374a1.34 1.34 0 01-1-.48 1.53 1.53 0 01-.44-1.07v-3.95h-3.06v1.33a5.92 5.92 0 01-.73 2.84 5.22 5.22 0 01-2 2.1l-1.38-1.36a4.24 4.24 0 002.15-4.12v-2.62h6.92v5a.51.51 0 00.21.39.66.66 0 00.39.17h1.81zm-3.45 3.13H369a11.43 11.43 0 002.15 3.29 12.34 12.34 0 002.27-3.29zm16.38-9.61h-4.33a3 3 0 01-.34.77h4.14v1.1h-2.1a4.34 4.34 0 01-.06.93h2.4v1.11h-2.22c1.18.57 1.91.94 2.2 1.11l-.82 1.19h.82v1.33h-7.25c-1.22 0-1.83-.66-1.83-2v-5.54h-.67V22h10.06zm9.35 9.59h-6.67v1h5.14v7.44h-2v-.53h-12.4v.53h-1.9v-7.49h5.28a3 3 0 00.11-1h-6.93v-1.24h19.37zm-13.62-7.72h-1.12a8.56 8.56 0 01-.7.7l-1.19-.87a6.52 6.52 0 001.34-1.7h-1.51v5.69c0 .35.18.52.55.52h.53l-.79-1.25a4.63 4.63 0 002.11-1.05h-1.94V26h2.61a3.19 3.19 0 00.11-.9zm10.13 14.28v-2.55h-3.5c-1 0-1.46-.43-1.46-1.27V35h-2.59a4.55 4.55 0 01-2 1.91 4.79 4.79 0 01-1.93.58l-.79-1.49a4.09 4.09 0 002.54-1h-2.71v4.38zm-7.26-9.94a19 19 0 00-2.27-1.34 5.37 5.37 0 01-2.13 1.34zm5.72 9.19h-9.24v-1.09h9.24zm-3.42-4.86v-1h-2.15a5.2 5.2 0 01-.1 1zm8.3-8.63h-2.33a1.6 1.6 0 01-1-.23 1.1 1.1 0 01-.28-.85v-.77h-2.49a3.06 3.06 0 01-1.67 2.43l-1.4-1.07a2.37 2.37 0 001.51-2.65h5.79v1.65c0 .15.09.22.26.22H399zm.09 4.68L398 31.09a25.12 25.12 0 00-3.14-1.52 17 17 0 01-4.19 1.43l-.74-1.49a12.81 12.81 0 002.91-.73c-1.16-.37-1.88-.59-2.17-.67l.9-.94h-1.28v-1.26h7.76v1.25a9.51 9.51 0 01-1.55 1.38c.91.4 1.77.82 2.59 1.28zm-3.43 5.94V35h-3.18v.36c0 .27.15.4.44.4zm.22-8.6h-3.12l2.06.7a11.46 11.46 0 001.06-.7zm11.24 1.51a8.82 8.82 0 011.79 4.81 3.62 3.62 0 01-.6 2.22 2.9 2.9 0 01-2.41.79h-.58l-.56-1.89a6.11 6.11 0 00.73.05c.68 0 1.1-.08 1.25-.26a1 1 0 00.23-.68 7.59 7.59 0 00-1.91-4.71 40.26 40.26 0 001.62-5h-2.15v17.15h-1.94V22h6.08v1.81a52.51 52.51 0 01-1.55 4.86zm14.34 8.16c0 1.74-.21 2.88-.64 3.42a3.11 3.11 0 01-2.54.82 3.18 3.18 0 01-1.91-.42 1.75 1.75 0 01-.54-1.46v-5.95h-1.89a8.08 8.08 0 01-5.44 8.11l-1.21-1.63c3.14-1.19 4.71-3.09 4.71-5.72a6.76 6.76 0 00-.05-.76h-2.55v-1.85h11.74v1.85h-3.33v5.52c0 .26.14.38.4.38.61 0 1-.11 1.13-.33a7.76 7.76 0 00.21-2.54zm-.46-8.35h-2v-2.74h-7.69v2.74h-1.91v-4.66h4.6a7.69 7.69 0 00-.8-1.82l2-.32a10.63 10.63 0 01.9 2.18h4.9zm-2.55 1H412v-1.9h6.37zm25.3 7.17h-5.52a39.67 39.67 0 014.52 3.56l-1.44 1.23c-.62-.58-1.09-1-1.4-1.27q-6.45.69-13.67.93l-.43-1.58c1.18-.18 2.58-1.13 4.21-2.87h-5.79v-1.71h19.52zm-.46-6.81h-1.94v-3.36h-6.44v4.8H433v-4.8h-6.33v3.4h-2v-5.1H433v-1h-7.46v-1.69h16.87v1.67h-7.48v1h8.38zm-1.11 3.93h-16.32v-1.66h16.32zm-9.71-3.15a42.17 42.17 0 01-5.06.91l-.53-1.33a38.45 38.45 0 004.95-.94zm-.05-3l-.65 1.38a31 31 0 00-4.67-.69l.54-1.33a30.47 30.47 0 014.78.63zM438 38.7c-.3-.23-.86-.6-1.65-1.09l1.07-1h-4.63a17.83 17.83 0 01-3.14 2.65c2.77-.09 5.56-.26 8.35-.56zm2.91-10.45a43 43 0 01-5 .57l-.51-1.39a23.81 23.81 0 004.8-.56zm.09 1.85l-.6 1.29c-1.62-.36-3.26-.64-4.92-.85l.6-1.3a28.72 28.72 0 014.92.86zm14.82 1.9l-1.38 1.45a15.27 15.27 0 00-2.13-3v10.74h-1.93V30.84a18.2 18.2 0 01-2.81 4.94l-1.23-1.67a21.73 21.73 0 004-6.72h-3.49v-1.92h3.57v-3.7h1.93v3.7h2.85v1.92h-2.85v.45a30.94 30.94 0 013.47 4.16zm10.27 3.74l-1.35 1.47a20.82 20.82 0 01-3.57-6.52v10.54h-1.93V30.62a23.26 23.26 0 01-3.77 6.52l-1.33-1.47a21.38 21.38 0 004.44-8.28h-2.49v-1.92h3.15v-3.7h1.93v3.7h4.52v1.92h-3.94a20 20 0 004.34 8.35zm10.66-13.3a17.34 17.34 0 01-2.72 4.9 19.93 19.93 0 01-4 4.1L468.61 30a18.54 18.54 0 006.48-8.31zm8.09 7.35c0 2.08-.06 4.13-.23 6.17a16.8 16.8 0 01-.56 3.76 2.51 2.51 0 01-1 1.12 2.88 2.88 0 01-1.58.41h-2.8l-.68-2c1.05.07 2.13.11 3.25.11a1.43 1.43 0 00.76-.21c.23-.14.4-1.07.53-2.77s.2-3.24.23-4.61H478a12.09 12.09 0 01-7.12 9.65l-1.41-1.55a11.54 11.54 0 004.21-3 8.94 8.94 0 002.27-5.11h-3.54v-2zm3.47.16l-1.26 1.58a17.45 17.45 0 01-5.55-7.64h-2V22h3.32a15 15 0 005.49 8zm7.88-1.28a8.8 8.8 0 011.81 4.81 3.68 3.68 0 01-.59 2.22 2.92 2.92 0 01-2.42.79h-.57l-.56-1.89a6.11 6.11 0 00.73.05c.68 0 1.1-.08 1.25-.26a1 1 0 00.23-.68 7.59 7.59 0 00-1.94-4.71 40.26 40.26 0 001.62-5h-2.16v17.15h-1.93V22h6.08v1.81a52.51 52.51 0 01-1.55 4.86zm14.34 8.16c0 1.74-.21 2.88-.65 3.42a3.09 3.09 0 01-2.53.82 3.24 3.24 0 01-1.92-.42 1.78 1.78 0 01-.53-1.46v-5.95H503a8.08 8.08 0 01-5.44 8.11l-1.22-1.63c3.15-1.19 4.72-3.09 4.72-5.72a6.68 6.68 0 000-.76h-2.57v-1.85h11.75v1.85h-3.33v5.52c0 .26.13.38.4.38.61 0 1-.11 1.13-.33a7.76 7.76 0 00.21-2.54zm-.53-8.35h-1.91v-2.74h-7.69v2.74h-1.91v-4.66h4.58a7.17 7.17 0 00-.82-1.86l2-.32a10.66 10.66 0 01.89 2.18H510zm-2.55 1h-6.38v-1.9h6.38zM145 59.42h-2.1l-5.83-9a5.91 5.91 0 01-.47-.85 13.72 13.72 0 01.07 1.77v8.06h-1.83V47.24H137l5.65 8.81c.27.42.44.71.53.87a12.55 12.55 0 01-.08-1.74v-7.94h1.9zm3.05-8.11a5.85 5.85 0 013.07-.79c2.2 0 3.29 1.14 3.29 3.41v5.49h-1.79V58.1a3.13 3.13 0 01-4.66.83 2.43 2.43 0 01-.73-1.86c0-1.63 1-2.59 2.92-2.86l2.52-.35c0-1.29-.57-1.94-1.71-1.94a4.56 4.56 0 00-2.87 1zm2.66 4.07a2.41 2.41 0 00-1.33.48 1.34 1.34 0 00-.39 1 1.2 1.2 0 00.42.94 1.56 1.56 0 001.07.36 2.05 2.05 0 001.54-.65 2.33 2.33 0 00.61-1.66v-.77zm10.62 3.95a3.13 3.13 0 01-1.48.29c-1.65 0-2.47-.9-2.47-2.69v-4.74h-1.47v-1.46h1.47v-2l1.84-.56v2.6h2.11v1.46h-2.11v4.42a1.9 1.9 0 00.28 1.17 1.13 1.13 0 00.93.36 1.6 1.6 0 00.9-.28zm1.54-11.59a1 1 0 01.31-.77 1.14 1.14 0 01.81-.3 1.16 1.16 0 01.81.3 1 1 0 01.33.77 1 1 0 01-.33.77 1.16 1.16 0 01-.81.3 1.09 1.09 0 01-.8-.31 1 1 0 01-.32-.76zm.18 11.68v-8.69h1.84v8.69zm3.89-4.27a4.61 4.61 0 011.22-3.39 4.47 4.47 0 013.33-1.24 4.16 4.16 0 013.14 1.2 4.57 4.57 0 011.16 3.28 4.64 4.64 0 01-1.22 3.36 4.32 4.32 0 01-3.25 1.26 4.25 4.25 0 01-3.19-1.22 4.45 4.45 0 01-1.19-3.25zm1.88 0a3.33 3.33 0 00.69 2.24 2.4 2.4 0 001.89.8c1.67 0 2.51-1 2.51-3.09a3.5 3.5 0 00-.64-2.28 2.3 2.3 0 00-1.87-.82 2.34 2.34 0 00-1.9.83 3.48 3.48 0 00-.68 2.28zm16.65 4.27h-1.84v-4.91c0-1.67-.6-2.51-1.82-2.51a1.91 1.91 0 00-1.52.7 2.59 2.59 0 00-.6 1.76v5h-1.85v-8.73h1.85v1.42a3.09 3.09 0 012.83-1.63q2.91 0 2.91 3.59zm2.66-8.11a5.88 5.88 0 013.08-.79q3.28 0 3.29 3.41v5.49h-1.79V58.1a2.88 2.88 0 01-2.71 1.53 2.83 2.83 0 01-2-.7 2.43 2.43 0 01-.74-1.86c0-1.63 1-2.59 2.92-2.86l2.52-.35c0-1.29-.56-1.94-1.7-1.94a4.61 4.61 0 00-2.88 1zm2.67 4.07a2.45 2.45 0 00-1.34.48 1.33 1.33 0 00-.38 1 1.19 1.19 0 00.41.94 1.59 1.59 0 001.07.36 2 2 0 001.54-.65 2.33 2.33 0 00.61-1.66v-.77zm6.13 4.04V46.55h1.85v12.87zm16.36-10.56h-3.49v10.56h-1.9V48.86h-3.49v-1.62h8.88zm-.03 2.45a5.88 5.88 0 013.08-.79q3.28 0 3.29 3.41v5.49h-1.79V58.1a2.87 2.87 0 01-2.64 1.53 2.83 2.83 0 01-2-.7 2.43 2.43 0 01-.73-1.86c0-1.63 1-2.59 2.91-2.86l2.53-.35c0-1.29-.57-1.94-1.71-1.94a4.61 4.61 0 00-2.88 1zm2.67 4.07a2.41 2.41 0 00-1.33.48 1.34 1.34 0 00-.39 1 1.23 1.23 0 00.41.94 1.59 1.59 0 001.07.36 2 2 0 001.54-.65 2.34 2.34 0 00.62-1.66v-.77zm5.95-7.64a1 1 0 01.32-.77 1.12 1.12 0 01.8-.3 1.16 1.16 0 01.81.3 1 1 0 01.33.77 1 1 0 01-.33.77 1.16 1.16 0 01-.81.3 1.1 1.1 0 01-.8-.31 1 1 0 01-.32-.76zm.18 11.68v-8.69h1.85v8.69zM238 50.73l-2.57 8.69h-1.92l-1.62-5.82a3.88 3.88 0 01-.14-.92 4.23 4.23 0 01-.17.89l-1.74 5.85H228l-2.57-8.69h1.91l1.54 6.27a5.27 5.27 0 01.12.85h.06a3.8 3.8 0 01.16-.87l1.83-6.21h1.72L234.4 57a6.81 6.81 0 01.13.85h.06a5.57 5.57 0 01.14-.85l1.55-6.25zm1.74.58a5.87 5.87 0 013.07-.79q3.3 0 3.3 3.41v5.49h-1.79V58.1a2.89 2.89 0 01-2.64 1.53 2.83 2.83 0 01-2-.7 2.43 2.43 0 01-.74-1.86c0-1.63 1-2.59 2.92-2.86l2.52-.35c0-1.29-.57-1.94-1.7-1.94a4.61 4.61 0 00-2.88 1zm2.67 4.07a2.45 2.45 0 00-1.34.48 1.34 1.34 0 00-.39 1 1.2 1.2 0 00.42.94 1.59 1.59 0 001.07.36 2 2 0 001.54-.65 2.33 2.33 0 00.61-1.66v-.77zm13.78 4.04h-1.84v-4.91c0-1.67-.61-2.51-1.83-2.51a1.91 1.91 0 00-1.52.7 2.59 2.59 0 00-.6 1.76v5h-1.85v-8.73h1.85v1.42a3.09 3.09 0 012.83-1.63c1.94 0 2.92 1.2 2.92 3.59zm15.96-5.05c0 3.5-1.61 5.26-4.81 5.26s-4.6-1.7-4.6-5.08v-7.31h1.88v7.26c0 2.31 1 3.47 2.86 3.47s2.78-1.12 2.78-3.35v-7.38h1.89zm10.31 5.05h-1.84v-4.91c0-1.67-.61-2.51-1.82-2.51a1.9 1.9 0 00-1.52.7 2.55 2.55 0 00-.61 1.76v5h-1.84v-8.73h1.84v1.42a3.1 3.1 0 012.83-1.63q2.93 0 2.92 3.59zm2.25-11.68A1 1 0 01285 47a1.12 1.12 0 01.8-.3 1.16 1.16 0 01.81.3 1 1 0 01.33.77 1 1 0 01-.33.77 1.16 1.16 0 01-.81.3 1.1 1.1 0 01-.8-.31 1 1 0 01-.29-.79zm.18 11.68v-8.69h1.85v8.69zm11.8-8.69l-3.39 8.69h-2l-3.22-8.69h2l2 6a6.52 6.52 0 01.31 1.33 6 6 0 01.28-1.29l2-6zm8.54 4.84h-6a2.41 2.41 0 002.68 2.63 4.43 4.43 0 002.64-.86v1.52a5.51 5.51 0 01-3.06.77 4 4 0 01-3-1.18 4.69 4.69 0 01-1.09-3.31 4.77 4.77 0 011.17-3.31 3.82 3.82 0 012.95-1.31 3.48 3.48 0 012.74 1.11 4.53 4.53 0 011 3.07zm-1.8-1.35a2.57 2.57 0 00-.51-1.71 1.75 1.75 0 00-1.43-.6 2 2 0 00-1.46.64 2.92 2.92 0 00-.77 1.67zm8.66-1.73a1.93 1.93 0 00-1.09-.27 1.7 1.7 0 00-1.45.79 3.51 3.51 0 00-.55 2.08v4.33h-1.85v-8.69H309v1.73a2.34 2.34 0 012.28-1.88 2.06 2.06 0 01.77.11zm1.12 4.91a4.49 4.49 0 002.54.83c1.15 0 1.72-.36 1.72-1.07a.9.9 0 00-.36-.74 7.32 7.32 0 00-1.62-.76 4.25 4.25 0 01-1.8-1.09 2.21 2.21 0 01-.46-1.45 2.18 2.18 0 011-1.9 4.3 4.3 0 012.49-.7 6 6 0 012.13.38v1.63a4.21 4.21 0 00-2.22-.61 2 2 0 00-1.13.29.89.89 0 00-.43.76.9.9 0 00.32.74 6.34 6.34 0 001.46.7 4.88 4.88 0 011.93 1.11 2.14 2.14 0 01.52 1.46 2.25 2.25 0 01-1 1.94 4.51 4.51 0 01-2.64.71 5.85 5.85 0 01-2.45-.49zm7.79-9.66a1 1 0 01.32-.77 1.12 1.12 0 01.8-.3 1.16 1.16 0 01.81.3 1 1 0 01.33.77 1 1 0 01-.33.77 1.16 1.16 0 01-.81.3 1.09 1.09 0 01-.8-.31 1 1 0 01-.32-.76zm.18 11.68v-8.69h1.85v8.69zm8.94-.09a3.06 3.06 0 01-1.47.29c-1.65 0-2.47-.9-2.47-2.69v-4.74h-1.47v-1.46h1.47v-2l1.84-.56v2.6h2.1v1.46H328v4.42a1.9 1.9 0 00.28 1.17 1.12 1.12 0 00.93.36 1.54 1.54 0 00.89-.28zm9.14-8.6l-3.83 9.84q-1.14 2.94-3.3 2.94a3.64 3.64 0 01-1.15-.15V61.8a2.22 2.22 0 00.94.21 1.63 1.63 0 001.54-1.16l.6-1.44-3.44-8.68h2.05l2.09 6.2a7.07 7.07 0 01.21.83 7.1 7.1 0 01.22-.82l2.18-6.21zm15.22 8.69h-1.89v-5.34h-5.86v5.34h-1.88V47.24h1.88v5.18h5.86v-5.18h1.89zm2.28-4.27a4.61 4.61 0 011.24-3.39 4.47 4.47 0 013.33-1.24 4.16 4.16 0 013.14 1.2 4.57 4.57 0 011.14 3.28 4.64 4.64 0 01-1.22 3.36 4.32 4.32 0 01-3.25 1.26 4.25 4.25 0 01-3.14-1.21 4.45 4.45 0 01-1.24-3.26zm1.88 0a3.33 3.33 0 00.69 2.24 2.38 2.38 0 001.89.8c1.67 0 2.51-1 2.51-3.09a3.5 3.5 0 00-.65-2.28 2.26 2.26 0 00-1.86-.78 2.34 2.34 0 00-1.9.83 3.48 3.48 0 00-.68 2.24zm10.87 3.1v5.17h-1.85V50.73h1.85v1.44a3.46 3.46 0 015.53-.49 4.77 4.77 0 01.95 3.14 5.37 5.37 0 01-.99 3.49 3.54 3.54 0 01-2.89 1.32 2.8 2.8 0 01-2.52-1.38zm0-2.49a2.43 2.43 0 00.63 1.7 2.21 2.21 0 003.38-.2 4.08 4.08 0 00.64-2.45 3.3 3.3 0 00-.59-2.08 2 2 0 00-1.67-.73 2.22 2.22 0 00-1.74.77 2.88 2.88 0 00-.67 1.95zm8.37-8.02a1 1 0 01.32-.77 1.12 1.12 0 01.8-.3 1.16 1.16 0 01.81.3 1 1 0 01.33.77 1 1 0 01-.33.77 1.16 1.16 0 01-.81.3 1.12 1.12 0 01-.8-.31 1 1 0 01-.32-.76zm.18 11.68v-8.69h1.85v8.69zm8.94-.09a3.06 3.06 0 01-1.47.29c-1.65 0-2.48-.9-2.48-2.69v-4.74h-1.47v-1.46H383v-2l1.84-.56v2.6H387v1.46h-2.11v4.42a1.83 1.83 0 00.29 1.17 1.11 1.11 0 00.92.36 1.6 1.6 0 00.9-.28zm1.93-8.02a5.85 5.85 0 013.07-.79c2.2 0 3.29 1.14 3.29 3.41v5.49h-1.79V58.1a3.13 3.13 0 01-4.66.83 2.43 2.43 0 01-.73-1.86c0-1.63 1-2.59 2.92-2.86l2.52-.35c0-1.29-.57-1.94-1.71-1.94a4.56 4.56 0 00-2.87 1zm2.66 4.07a2.41 2.41 0 00-1.33.48 1.34 1.34 0 00-.39 1 1.2 1.2 0 00.42.94 1.55 1.55 0 001.06.36 2.06 2.06 0 001.55-.65 2.38 2.38 0 00.61-1.66v-.77zm6.13 4.04V46.55h1.85v12.87zm17.05-12.18l-4 7.74v4.44h-1.9V55L405 47.24h2.16l2.45 5.17.29.83a3.55 3.55 0 01.3-.82l2.55-5.18zm7.64 12.18h-1.84v-1.36a2.92 2.92 0 01-2.67 1.57q-3.08 0-3.08-3.69v-5.21h1.84v5c0 1.62.63 2.44 1.87 2.44a1.92 1.92 0 001.5-.67 2.62 2.62 0 00.58-1.75v-5h1.84zm10.24 0h-1.84v-4.91c0-1.67-.61-2.51-1.82-2.51a1.9 1.9 0 00-1.52.7 2.55 2.55 0 00-.61 1.76v5H425v-8.73h1.84v1.42a3.1 3.1 0 012.83-1.63q2.92 0 2.92 3.59zm2.43 0V46.55h1.85v12.87zm4.25-11.68a1 1 0 01.32-.77 1.13 1.13 0 01.81-.3 1.16 1.16 0 01.81.3 1 1 0 01.33.77 1 1 0 01-.33.77 1.16 1.16 0 01-.81.3 1.12 1.12 0 01-.81-.31 1 1 0 01-.32-.76zm.18 11.68v-8.69h1.85v8.69zm12.09 0h-1.84v-4.91c0-1.67-.61-2.51-1.83-2.51a1.91 1.91 0 00-1.52.7 2.59 2.59 0 00-.6 1.76v5H444v-8.73h1.85v1.42a3.09 3.09 0 012.83-1.63c1.94 0 2.92 1.2 2.92 3.59zm6.69 0V47.24h3.8a4.37 4.37 0 012.72.77 2.44 2.44 0 011 2.05 2.79 2.79 0 01-.6 1.77 3.25 3.25 0 01-1.6 1.07 3.13 3.13 0 012 .93 2.79 2.79 0 01.76 2 3.21 3.21 0 01-1.14 2.56 4.42 4.42 0 01-3 1zm1.88-10.63v3.56h1.37a2.42 2.42 0 001.67-.52 1.77 1.77 0 00.6-1.42c0-1.08-.74-1.62-2.21-1.62zm0 5.12v4H462a2.73 2.73 0 001.79-.53 1.83 1.83 0 00.64-1.49c0-1.29-.87-1.94-2.62-1.94zm13.21-1.42a1.93 1.93 0 00-1.09-.27 1.7 1.7 0 00-1.45.79 3.51 3.51 0 00-.55 2.08v4.33h-1.85v-8.69h1.85v1.73a2.34 2.34 0 012.28-1.88 2.06 2.06 0 01.77.11zm1.62-1.18a5.85 5.85 0 013.07-.79q3.3 0 3.3 3.41v5.49h-1.8V58.1a2.87 2.87 0 01-2.64 1.53 2.82 2.82 0 01-2-.7 2.43 2.43 0 01-.74-1.86c0-1.63 1-2.59 2.92-2.86l2.52-.35c0-1.29-.57-1.94-1.71-1.94a4.56 4.56 0 00-2.87 1zm2.66 4.07a2.41 2.41 0 00-1.33.48 1.34 1.34 0 00-.39 1 1.2 1.2 0 00.42.94 1.57 1.57 0 001.07.36 2.05 2.05 0 001.54-.65 2.33 2.33 0 00.61-1.66v-.77zm13.79 4.04h-1.84v-4.91c0-1.67-.6-2.51-1.82-2.51a1.91 1.91 0 00-1.52.7 2.59 2.59 0 00-.6 1.76v5h-1.85v-8.73h1.85v1.42a3.08 3.08 0 012.83-1.63q2.91 0 2.91 3.59zm8.61-.37a4.76 4.76 0 01-2.46.58 4.12 4.12 0 01-3.08-1.21 4.28 4.28 0 01-1.18-3.14 4.72 4.72 0 011.27-3.47 4.49 4.49 0 013.39-1.29 4.56 4.56 0 012.1.42v1.73a3.35 3.35 0 00-2-.67 2.67 2.67 0 00-2.06.85 3.24 3.24 0 00-.79 2.29 3.1 3.1 0 00.75 2.21 2.64 2.64 0 002 .8 3.48 3.48 0 002.07-.71zm9.6.37h-1.85v-5c0-1.63-.6-2.44-1.8-2.44a1.89 1.89 0 00-1.51.7 2.6 2.6 0 00-.61 1.78v4.94H502V46.55h1.85v5.57a3.1 3.1 0 012.79-1.6q2.94 0 2.94 3.56z"/></g></svg>