<svg xmlns="http://www.w3.org/2000/svg" viewBox="0 0 128.3 65.2"><linearGradient id="a" gradientUnits="userSpaceOnUse" x1="0" y1="25.57" x2="128.31" y2="25.57" gradientTransform="matrix(1 0 0 -1 0 68)"><stop offset="0" stop-opacity="0"/><stop offset=".5"/><stop offset="1" stop-opacity="0"/></linearGradient><path fill="url(#a)" d="M0 41.4h128.3v2H0z"/><radialGradient id="b" cx="41.54" cy="18.92" r="13.79" gradientTransform="matrix(1 0 0 -1 0 68)" gradientUnits="userSpaceOnUse"><stop offset=".17" stop-color="#8cc63f"/><stop offset="1" stop-color="#006837"/></radialGradient><circle cx="43" cy="51.6" r="13.6" fill="url(#b)"/><radialGradient id="c" cx="35.92" cy="50.95" r="28.79" gradientTransform="matrix(1 0 0 -1 0 68)" gradientUnits="userSpaceOnUse"><stop offset="0" stop-color="#16367d"/><stop offset="1" stop-color="#16153f"/></radialGradient><path d="M45.5 19.8c-1.5.1-2.9-.5-3.8-1.6-.4-.4-.4-1.1 0-1.5.1-.1.2-.2.4-.2.5-.3 1-.4 1.5-.4 2 .1 4-.5 5.7-1.7.7-.4 1.6-.3 2.3-.6.6-.3 1.1-.8 1.4-1.4 1.1-2.2.5-4.4.7-6.6.1-1.1.1-2.1 0-3.2 0-.6.2-.8.8-.8.7 0 1.4 0 2.1-.1.5-.1 1 .1 1.2.6.2 3.2-.7 6.4-.8 9.7 1-.3 2.1-.5 3.1-.8.1 0 .3-.1.4-.2 1.3-.6 2.6-1.1 3.9-1.8.5-.2 1.1-.4 1.3-1 .1-.2.3-.3.6-.3 1.2.1 2.6-.6 3.7.3.5.5 1.2.1 1.7.5v2c0 .6-.2.8-.8.8-1-.1-2.1 0-3.1.3-3 .9-5.9 2-8.9 3-.7.2-1 .9-1.8.9s-.7.3-.8.8c-.1 1.2-.5 2.3-1.1 3.3-1 2.3-2 4.6-2.7 7-.1.3.1.8-.3 1-1.3.8-1.8 2.3-2.8 3.3-.5.6-1.2 1-2 1.3-1.5.4-3.1.7-4.7.8-.5 0-1 .2-1.6 0-.1-.4.2-.4.4-.5 2.4-1.9 4.1-4.3 6.1-6.5.8-1 1.3-2.2 1.5-3.4.3-1.3 1-2.6 1.4-3.9.4-.2.6-.7.4-1.1v-.1c-.1-.2-.3-.3-.5-.3h-.1c-1.5.9-3.3 1.3-4.8 2.4z" fill="url(#c)"/><radialGradient id="d" cx="35.92" cy="50.95" r="28.79" gradientTransform="matrix(1 0 0 -1 0 68)" gradientUnits="userSpaceOnUse"><stop offset="0" stop-color="#16367d"/><stop offset="1" stop-color="#16153f"/></radialGradient><path d="M57.3 24.3c1.3-.2 2.6-.3 3.9-.2 1.5.3 3.2.4 4.5 1.4.9.8 2 1.3 3.2 1.5 0 .2.2.4.4.5 1 .8 2.1 1.3 3.2 1.7h.2c1.5 1.8 3 3.6 4.6 5.5.6.7.8 1.8.3 2.7-.6 1.4-2.1 2.2-3.6 2-2.1.2-3.1-1.4-4.4-2.6-1.5-1.4-2.5-3.4-4.3-4.5-1.2-1.4-2.9-1.6-4.5-2.1l-.4-.2c-.1-.2-.2-.2-.4-.2-1.7-.8-3.3-2-4.5-3.4v-1.3c0-.5.3-.6.6-.7l.4.1c.2.2.3.1.5 0l.3-.2z" fill="url(#d)"/><radialGradient id="e" cx="35.92" cy="50.95" r="28.79" gradientTransform="matrix(1 0 0 -1 0 68)" gradientUnits="userSpaceOnUse"><stop offset="0" stop-color="#16367d"/><stop offset="1" stop-color="#16153f"/></radialGradient><path d="M28.8 16.2c-1.5 1-2.8 2.2-4.6 2.6-.2 0-.4.2-.5-.1 0-.1.2-.2.3-.3 2.3-.8 3.8-2.5 5.2-4.4.2-.4.2-.9-.1-1.2-.3-.3-.7 0-1.1.2-.9.6-1.8 1.1-2.8 1.6-2.4 1.3-4.7 2.8-6.8 4.4-1.1.8-2.4 1.5-3.7 1.9-1.6.4-3.2 1.1-4.5 2.1-1.1.9-2.4 1.6-3.7 2.2-1.4.5-2.9-.3-3.4-1.7-.1-.3-.1-.6-.1-.9 0-1.2-.3-2.5.8-3.5.3-.4.8-.7 1.4-.6 2.1.3 4.1-.5 5.5-2.1 1.6-1.6 3.6-2.8 4.9-4.7 1.2-1.7 2.8-3.1 4.1-4.7 1.2-1.3 1.8-3.1 1.5-4.9-.1-.7-.4-1.6.6-2L22 0h.4l1.6.2.2.2c0 .2.1.3.3.3l.4.5c.8 1 1.6 2 2.5 2.9.5.4.6 1.1.4 1.8C27 8 25.1 9 23.5 10c-2 1.3-4.1 2.4-6.3 3.3-3 .6-4.6 3.3-6.9 4.9 1-.2 2-.6 2.9-1.1l4.1-1.2c1.7-.4 3.3-1 4.9-1.8 2.1-.8 4.1-1.7 6-2.9.3-.2.8-.3.5-.8s-.3-1-.4-1.5c.2-.7 1-.3 1.4-.8 1-.1 1.6.6 2.3 1 .4.5.9.8 1.5 1 1.9.5 3.1 2.4 2.8 4.3 0 .9-.4 1.5-1.5 1.5-.9-.1-1.8-.1-2.7 0-1.1.1-2.2-.3-3.2.3 0-.1-.1-.1-.1 0z" fill="url(#e)"/><radialGradient id="f" cx="35.92" cy="50.95" r="28.79" gradientTransform="matrix(1 0 0 -1 0 68)" gradientUnits="userSpaceOnUse"><stop offset="0" stop-color="#16367d"/><stop offset="1" stop-color="#16153f"/></radialGradient><path d="M16.2 22.4h1c1.2 0 1.5.3 1.4 1.5-.4.5-.6 1.1-.7 1.7-.1 2.9-.1 5.7.1 8.6 0 .3 0 .7.5.7.8 0 1.7.3 2.5-.3 1.9-.7 3.8-1.2 5.7-1.5.9 0 1.6-.7 1.6-1.5v-.2c.2-1.6.6-3.1 1.3-4.5l.2-.2c.3-.7.9-1.2 1.1-2 .1-.5 0-.6-.5-.7-1.2-.1-2.4.1-3.4.7-2.1 1-4 2.1-6 3.3-.4 0-.7.2-1 0s-.2-.6-.1-.9c.3-.6.4-1.2.3-1.9V25h.1c.3-.1.6-.2.9-.2 1.9 0 3.7-.7 5.1-2.1.4-.4 1.2-.4 1.6-.8 2.4-2 5.2-1.2 7.9-1.2.2 0 .4.2.5.3l.1.4c-.1.3 0 .6.2.9 0 1.1-.2 2.2-.5 3.2-.4 1-1.4 1.6-1.5 2.8 0 .1-.1.1-.1.1-1.3.4-1.5 1.8-2 2.7s0 1.5 1 1.5c.4-.1.7 0 1 .3.7.8.6 2.1-.2 2.8-.3.2-.6.4-1 .5-3.5.5-7 1-10.6 1.3-.7.1-2-.3-2 1.2 0 .1-.3.3-.5.3-.6.2-1.3.3-2 .2-1-.2-2-.2-3-.1-.4 0-.8-.1-1.3-.2-.6-.2-1.1-.4-1.2-1.2s.5-1 1-1.2c.5-.2.7-.8.5-1.3-.6-2.4-.7-4.8-.2-7.2.1-1.4.7-2.7 1.7-3.6.3-.3.4-.6.2-1 0-.4.1-.8.3-1z" fill="url(#f)"/><radialGradient id="g" cx="35.92" cy="50.95" r="28.79" gradientTransform="matrix(1 0 0 -1 0 68)" gradientUnits="userSpaceOnUse"><stop offset="0" stop-color="#16367d"/><stop offset="1" stop-color="#16153f"/></radialGradient><path d="M20.2 25.3v-.2.2z" fill="url(#g)"/><path d="M85.8 24.5V30H92c.2-.1.3-.2.5-.4.4-.4.7-.6.8-.6.4.2.8.4 1.1.7.4.3.6.5.6.5.6-.2 1.2-.5 1.8-.8-.3-.2-.5-.4-.7-.6-.4-.4-.7-.8-.9-1.3h-1.1l-.4-.7c1 .1 2.1.1 3.1.1h2.5l.5-.4.2-.1c-.3 0-.6 0-.9-.1-.5-.1-.8-.5-.8-1.3v-.9h-1.6c-.1.8-.6 1.6-1.3 2-.6.3-1.3.5-2 .5l-.1-.1c.9-.4 1.5-1.4 1.4-2.4 0-.4-.1-.8-.2-1.1.8.2 1.7.4 2.4.7h1.2l.6-.5.6-.3c.4.1.8.2 1.1.4.5.3.7.5.7.7s-.1.2-.4.4-.5.3-.5.4 0 .3.2.3c.2.1.5.1.7.1h.5c.2 0 .4-.1.6-.3.1-.2.3-.5.5-.9l.3.1.1.3c0 .2.1.5.3.6.3.3.4.4.4.5 0 .3-.3.5-.8.6-.6.1-1.2.2-1.9.2l.5.3c.6.4.8.6.8.7s-.2.2-.6.2c-.3 0-.5 0-.7.1-.4.5-.9.9-1.5 1.3 1.3.3 2.6.4 3.9.5l-.1.3c-.4.1-.7.3-.9.7.1.1.3.3.5.4.5.4.8.7.8.8s-.1.3-.4.3h-7.1v1.4H99l.7-.5c.2-.2.4-.3.7-.3.5.1.9.3 1.3.5.7.4 1.1.7 1.1.9s-.2.3-.5.5-.4.4-.4.5v.6l.1 3.5c0 .2-.4.3-1.2.4h-.7c-.4 0-.6-.2-.6-.5v-.3H87.2v.4c0 .2-.4.3-1.1.4h-.7c-.5 0-.7-.2-.7-.5.1-.3.1-.7.1-1v-3.8c0-.4 0-.8-.1-1.4.9.2 1.8.5 2.7.8h2.4c0-.3.1-.7.1-1v-.4H86c-1.3 0-2.3 0-2.8.1l-.4-.7c1.1.1 2.1.2 3.2.1h14.4c.2-.2.5-.4.7-.6-.3 0-.5-.1-.8-.2-.8-.2-1.6-.4-2.3-.8l-.6.2c-1.3.4-2.7.7-4.1.9l-.1-.1c.4-.1.8-.2 1.3-.4h-8.6v.2c0 .2-.3.4-1 .5h-.7c-.4 0-.6-.2-.6-.5 0-.5.1-1.1.1-1.6v-3.8c0-.8 0-1.5-.1-2.2.9.2 1.8.5 2.7.8h4.8l.5-.4c.4-.4.7-.5.8-.5.4.1.8.4 1.1.6.4.3.6.4.6.5 0 .1-.1.3-.2.3h-6.1c.3.1.6.1.8.2.5.1.7.3.7.4s-.1.2-.4.2c-.2 0-.3 0-.4.1l-.2.2h2.4l.4-.3c.2-.2.4-.3.7-.4.3.1.6.3.9.5.3.2.5.4.5.4 0 .2-.1.3-.3.3h-2.2c0 .5-.1.9-.1 1.2h.7c.2-.1.3-.2.5-.4s.4-.3.6-.4c.3.1.6.2.8.5.4.3.6.5.6.6s-.1.3-.3.3h-3c0 .1-.1.1-.1.2.6.1 1.3.2 1.9.3.4.1.6.3.6.4 0 .3-.2.6-.4.7-.2.2-.5.3-.8.3-.3 0-.5-.2-.7-.4-.2-.3-.5-.6-.9-.8-.1.1-.2.3-.3.4-.4.3-.8.5-1.2.7-.8.3-1.6.5-2.4.6v-.2c.4-.2.9-.4 1.3-.6.3-.2.5-.4.7-.7.2-.2.3-.5.4-.8-1 0-1.7 0-2.2.1l-.4-.7c.9.1 1.7.2 2.6.1 0-.3.1-.7.1-1.2h-1l-.2.1c-.4.3-.9.5-1.3.7l-.2-.4c.3-.3.5-.7.7-1.1.2-.4.3-.7.4-1.1h-1.3zm13.7 12.1V36h-3.3c-.5 0-1-.1-1.5-.3-.3-.1-.5-.4-.5-.8v-1H92c-.1.1-.1.2-.2.4-.4.5-.9.9-1.5 1.1-.8.4-1.7.7-2.6.8l-.3-.2c.5-.2.9-.4 1.3-.8.4-.3.7-.6.9-1 0-.1.1-.2.1-.3h-2.5v2.6h12.3zm0 1.6v-1.1H87.2v1.1h12.3zm-5.2-6.1h-1.9v.4c0 .3 0 .7-.1 1h2v-1.4zm3-3.6c.2.1.5.2.7.3.5-.4 1-.8 1.4-1.3h-3.6c.5.4 1 .8 1.5 1zm-1 6.1c0 .2.1.2.5.2h2.7V34h-3.2v.6zM114 23.8c.6.4.9.7.9.8s-.2.3-.7.3-.8.2-.9.3c-.8 1.3-1.7 2.6-2.7 3.7.8.5 1.6 1.1 2.2 1.8.3.4.5.8.7 1.2.2.4.3.9.3 1.4 0 .5-.1 1-.5 1.4-.3.4-.7.6-1.1.8-.3.2-.7.3-1 .3-.2 0-.3-.2-.4-.6s-.7-.8-1.6-1.1v4.6c0 .2-.4.4-1.2.5h-.7c-.5 0-.7-.2-.7-.6 0-.6.1-1.2.1-1.9V25.8c0-.9-.1-1.7-.2-2.6 1.1.2 2.2.5 3.3.9h1.1c.3-.3.6-.5.9-.8.2-.2.4-.3.7-.3.5.2 1 .5 1.5.8zm-4.7 10c.5.1.9.1 1.4.1.3 0 .5 0 .8-.2.2-.3.2-.6.2-.9 0-.7-.1-1.3-.4-1.9-.4-.7-.8-1.4-1.4-1.9.6-1.4 1.1-2.9 1.4-4.4h-1.9l-.1 9.2zm7.4-2.3h6.3c.3-.2.5-.4.7-.7.3-.3.6-.6 1-.8.5.1 1 .4 1.3.8.6.5 1 .8 1 .9s-.2.3-.5.3h-4v4.7c0 .3.1.5.3.6h1c.3 0 .6-.1.8-.3.3-.7.6-1.5.8-2.3l.5.1V36c0 .4.2.8.6 1.1.3.3.5.5.5.8 0 .3-.2.6-.5.7-.9.3-1.8.5-2.7.4h-1.3c-.4 0-.9 0-1.3-.2-.7 0-1.2-.6-1.2-1.3V32h-1.4c-.1 1-.3 2.1-.7 3-.3.6-.7 1.2-1.2 1.7-.6.5-1.3.9-2 1.3-1.1.5-2.3.9-3.5 1.2l-.3-.4c.7-.2 1.4-.6 2-1 .6-.4 1.2-.9 1.7-1.5.4-.5.7-1.1.9-1.7.3-.8.5-1.7.5-2.5-.9 0-1.6 0-2.1.1l-.3-.7h3.1zm4.4-8.1c.6 0 .9.1.9.3s-.2.2-.5.3-.6.3-.6.5v1.2h2.3c.3-.2.6-.4.8-.6.2-.2.4-.4.7-.4.6.2 1.1.4 1.5.8.7.5 1.1.8 1.1 1s-.2.3-.5.3c-.2 0-.5 0-.7.1-.8.4-1.6.8-2.4 1.1.6.5.8.7.8.8s-.1.3-.4.3H115l-.4-.7c1.1.1 2.1.2 3.2.1h3.1c.3-.2.5-.4.7-.6.3-.3.6-.5.9-.7.2 0 .3.1.5.1l.6-1.2h-7.8c0 .3-.1.7-.1 1-.1.4-.4.8-.8 1-.2.1-.4.2-.7.2-.4 0-.8-.1-1.1-.3-.3-.1-.4-.4-.4-.7 0-.1.2-.3.7-.6.5-.2.9-.4 1.3-.8.3-.3.6-.7.7-1.2l.4.1v.9h2.6v-1.1c0-.5-.1-1-.2-1.5 1 .1 2 .2 2.9.3z" fill="#202b6d"/><path d="M60.4 47.3h2.8l3.7 5.4v-5.4h2.9v9.8h-2.9l-3.7-5.4v5.4h-2.9v-9.8zm10.7 0h9.2v2.4h-3.1v7.4h-3v-7.4h-3.1v-2.4zm17 0h3v5.8c0 .6-.1 1.1-.3 1.7-.2.5-.5 1-.9 1.3-.3.4-.8.6-1.2.8-.7.2-1.4.3-2.1.3-.5 0-1 0-1.6-.1-.5 0-1-.2-1.4-.4-.4-.2-.7-.5-1-.8-.3-.3-.5-.7-.7-1.1-.2-.5-.3-1.1-.3-1.7v-5.8h3v6c0 .5.1.9.4 1.3.7.6 1.7.6 2.5 0 .3-.3.5-.8.4-1.3l.2-6zm5.1 0h3v3.4h3.3v-3.4h3v9.8h-3v-4h-3.3v4h-3v-9.8zm10.7 5.2h4v2.1h-4v-2.1zm4.3-5.2h3.4l2 3.3 2-3.3h3.3l-3.8 5.7v4.1h-3V53l-3.9-5.7zm11.6 0h3v7.4h4.7v2.4h-7.8l.1-9.8z" fill="gray"/><path fill="#fff" d="M51.7 48.5h-5.4v-5.8h-6.6v5.8h-5.4v6.6h5.4v5.4h6.6v-5.4h5.4z"/></svg>