<svg version="1.1" id="圖層_1" xmlns="http://www.w3.org/2000/svg" x="0" y="0" viewBox="0 0 188 78" xml:space="preserve"><style>.st10{fill:#f15a24}</style><linearGradient id="SVGID_1_" gradientUnits="userSpaceOnUse" x1="-842.205" y1="37.57" x2="-713.895" y2="37.57" gradientTransform="matrix(1.47 0 0 -1 1235.34 80)"><stop offset="0" stop-color="#f15a24" stop-opacity="0"/><stop offset=".5" stop-color="#f15a24"/><stop offset="1" stop-color="#f15a24" stop-opacity="0"/></linearGradient><path fill="url(#SVGID_1_)" d="M0 41.4h188v2H0z"/><radialGradient id="SVGID_2_" cx="38.9" cy="25.68" r="20.29" gradientTransform="matrix(1 0 0 -1 0 80)" gradientUnits="userSpaceOnUse"><stop offset=".17" stop-color="#8cc63f"/><stop offset="1" stop-color="#006837"/></radialGradient><circle cx="41" cy="58" r="20" fill="url(#SVGID_2_)"/><radialGradient id="SVGID_3_" cx="35.92" cy="62.95" r="28.79" gradientTransform="matrix(1 0 0 -1 0 80)" gradientUnits="userSpaceOnUse"><stop offset="0" stop-color="#16367d"/><stop offset="1" stop-color="#16153f"/></radialGradient><path d="M45.5 19.8c-1.5.1-2.9-.5-3.8-1.6-.4-.4-.4-1.1 0-1.5.1-.1.2-.2.4-.2.5-.3 1-.4 1.5-.4 2 .1 4-.5 5.7-1.7.7-.4 1.6-.3 2.3-.6.6-.3 1.1-.8 1.4-1.4 1.1-2.2.5-4.4.7-6.6.1-1.1.1-2.1 0-3.2 0-.6.2-.8.8-.8.7 0 1.4 0 2.1-.1.5-.1 1 .1 1.2.6.2 3.2-.7 6.4-.8 9.7 1-.3 2.1-.5 3.1-.8.1 0 .3-.1.4-.2 1.3-.6 2.6-1.1 3.9-1.8.5-.2 1.1-.4 1.3-1 .1-.2.3-.3.6-.3 1.2.1 2.6-.6 3.7.3.5.5 1.2.1 1.7.5v2c0 .6-.2.8-.8.8-1-.1-2.1 0-3.1.3-3 .9-5.9 2-8.9 3-.7.2-1 .9-1.8.9s-.7.3-.8.8c-.1 1.2-.5 2.3-1.1 3.3-1 2.3-2 4.6-2.7 7-.1.3.1.8-.3 1-1.3.8-1.8 2.3-2.8 3.3-.5.6-1.2 1-2 1.3-1.5.4-3.1.7-4.7.8-.5 0-1 .2-1.6 0-.1-.4.2-.4.4-.5 2.4-1.9 4.1-4.3 6.1-6.5.8-1 1.3-2.2 1.5-3.4.3-1.3 1-2.6 1.4-3.9.4-.2.6-.7.4-1.1v-.1c-.1-.2-.3-.3-.5-.3h-.1c-1.5.9-3.3 1.3-4.8 2.4z" fill="url(#SVGID_3_)"/><radialGradient id="SVGID_4_" cx="35.92" cy="62.95" r="28.79" gradientTransform="matrix(1 0 0 -1 0 80)" gradientUnits="userSpaceOnUse"><stop offset="0" stop-color="#16367d"/><stop offset="1" stop-color="#16153f"/></radialGradient><path d="M57.3 24.3c1.3-.2 2.6-.3 3.9-.2 1.5.3 3.2.4 4.5 1.4.9.8 2 1.3 3.2 1.5 0 .2.2.4.4.5 1 .8 2.1 1.3 3.2 1.7h.2c1.5 1.8 3 3.6 4.6 5.5.6.7.8 1.8.3 2.7-.6 1.4-2.1 2.2-3.6 2-2.1.2-3.1-1.4-4.4-2.6-1.5-1.4-2.5-3.4-4.3-4.5-1.2-1.4-2.9-1.6-4.5-2.1l-.4-.2c-.1-.2-.2-.2-.4-.2-1.7-.8-3.3-2-4.5-3.4v-1.3c0-.5.3-.6.6-.7l.4.1c.2.2.3.1.5 0l.3-.2z" fill="url(#SVGID_4_)"/><radialGradient id="SVGID_5_" cx="35.92" cy="62.95" r="28.79" gradientTransform="matrix(1 0 0 -1 0 80)" gradientUnits="userSpaceOnUse"><stop offset="0" stop-color="#16367d"/><stop offset="1" stop-color="#16153f"/></radialGradient><path d="M28.8 16.2c-1.5 1-2.8 2.2-4.6 2.6-.2 0-.4.2-.5-.1 0-.1.2-.2.3-.3 2.3-.8 3.8-2.5 5.2-4.4.2-.4.2-.9-.1-1.2-.3-.3-.7 0-1.1.2-.9.6-1.8 1.1-2.8 1.6-2.4 1.3-4.7 2.8-6.8 4.4-1.1.8-2.4 1.5-3.7 1.9-1.6.4-3.2 1.1-4.5 2.1-1.1.9-2.4 1.6-3.7 2.2-1.4.5-2.9-.3-3.4-1.7-.1-.3-.1-.6-.1-.9 0-1.2-.3-2.5.8-3.5.3-.4.8-.7 1.4-.6 2.1.3 4.1-.5 5.5-2.1 1.6-1.6 3.6-2.8 4.9-4.7 1.2-1.7 2.8-3.1 4.1-4.7 1.2-1.3 1.8-3.1 1.5-4.9-.1-.7-.4-1.6.6-2L22 0h.4l1.6.2.2.2c0 .2.1.3.3.3l.4.5c.8 1 1.6 2 2.5 2.9.5.4.6 1.1.4 1.8C27 8 25.1 9 23.5 10c-2 1.3-4.1 2.4-6.3 3.3-3 .6-4.6 3.3-6.9 4.9 1-.2 2-.6 2.9-1.1l4.1-1.2c1.7-.4 3.3-1 4.9-1.8 2.1-.8 4.1-1.7 6-2.9.3-.2.8-.3.5-.8s-.3-1-.4-1.5c.2-.7 1-.3 1.4-.8 1-.1 1.6.6 2.3 1 .4.5.9.8 1.5 1 1.9.5 3.1 2.4 2.8 4.3 0 .9-.4 1.5-1.5 1.5-.9-.1-1.8-.1-2.7 0-1.1.1-2.2-.3-3.2.3 0-.1-.1-.1-.1 0z" fill="url(#SVGID_5_)"/><radialGradient id="SVGID_6_" cx="35.92" cy="62.95" r="28.79" gradientTransform="matrix(1 0 0 -1 0 80)" gradientUnits="userSpaceOnUse"><stop offset="0" stop-color="#16367d"/><stop offset="1" stop-color="#16153f"/></radialGradient><path d="M16.2 22.4h1c1.2 0 1.5.3 1.4 1.5-.4.5-.6 1.1-.7 1.7-.1 2.9-.1 5.7.1 8.6 0 .3 0 .7.5.7.8 0 1.7.3 2.5-.3 1.9-.7 3.8-1.2 5.7-1.5.9 0 1.6-.7 1.6-1.5v-.2c.2-1.6.6-3.1 1.3-4.5l.2-.2c.3-.7.9-1.2 1.1-2 .1-.5 0-.6-.5-.7-1.2-.1-2.4.1-3.4.7-2.1 1-4 2.1-6 3.3-.4 0-.7.2-1 0s-.2-.6-.1-.9c.3-.6.4-1.2.3-1.9V25h.1c.3-.1.6-.2.9-.2 1.9 0 3.7-.7 5.1-2.1.4-.4 1.2-.4 1.6-.8 2.4-2 5.2-1.2 7.9-1.2.2 0 .4.2.5.3l.1.4c-.1.3 0 .6.2.9 0 1.1-.2 2.2-.5 3.2-.4 1-1.4 1.6-1.5 2.8 0 .1-.1.1-.1.1-1.3.4-1.5 1.8-2 2.7s0 1.5 1 1.5c.4-.1.7 0 1 .3.7.8.6 2.1-.2 2.8-.3.2-.6.4-1 .5-3.5.5-7 1-10.6 1.3-.7.1-2-.3-2 1.2 0 .1-.3.3-.5.3-.6.2-1.3.3-2 .2-1-.2-2-.2-3-.1-.4 0-.8-.1-1.3-.2-.6-.2-1.1-.4-1.2-1.2s.5-1 1-1.2c.5-.2.7-.8.5-1.3-.6-2.4-.7-4.8-.2-7.2.1-1.4.7-2.7 1.7-3.6.3-.3.4-.6.2-1 0-.4.1-.8.3-1z" fill="url(#SVGID_6_)"/><radialGradient id="SVGID_7_" cx="35.92" cy="62.95" r="28.79" gradientTransform="matrix(1 0 0 -1 0 80)" gradientUnits="userSpaceOnUse"><stop offset="0" stop-color="#16367d"/><stop offset="1" stop-color="#16153f"/></radialGradient><path d="M20.2 25.3v-.2.2z" fill="url(#SVGID_7_)"/><path d="M84.6 28.1v4.1h4.3l.3-.3c.2-.2.5-.4.6-.4.3.1.6.3.8.5.3.2.4.3.4.4.4-.2.9-.4 1.3-.6-.2-.1-.4-.3-.5-.5-.3-.3-.5-.6-.6-1h-.8l-.3-.5c.7.1 1.5.1 2.2.1h1.8l.3-.3.1-.1c-.4 0-.6 0-.6-.1-.4-.1-.5-.4-.5-.9v-.6h-1.2c-.1.6-.4 1.1-.9 1.4-.4.2-.9.4-1.4.4l-.1-.1c.7-.3 1.1-1 1-1.8 0-.3 0-.6-.1-.8.6.1 1.2.3 1.7.5h.8l.4-.3c.1-.1.3-.2.4-.2.3.1.5.2.8.3.3.2.5.4.5.5s-.1.2-.3.3-.3.2-.3.3 0 .2.1.3c.2 0 .3.1.5 0h.3c.2 0 .3-.1.4-.2l.4-.6h.2l.1.2c0 .2.1.4.2.5.2.2.3.3.3.4s-.2.4-.5.5c-.4.1-.9.2-1.3.2l.4.2c.4.3.6.5.6.5l-.4.2c-.2 0-.4 0-.5.1-.3.4-.7.7-1.1.9.9.2 1.8.3 2.7.4H97c-.3.1-.5.2-.7.5.1.1.2.2.4.3.4.3.6.5.6.6s-.1.2-.3.2h-5v1h1.8l.5-.3c.1-.1.3-.2.5-.3.3.1.6.2.9.4.5.3.8.5.8.7s-.1.2-.3.4-.3.3-.3.4v.4l.1 2.4c0 .2-.3.3-.8.3h-.5c-.3 0-.4-.1-.4-.3v-.2h-8.7v.2c0 .2-.3.3-.7.3h-.5c-.4 0-.5-.1-.5-.3 0-.2.1-.5.1-.8v-2.7c0-.3 0-.6-.1-1 .6.1 1.3.3 1.9.6h1.7c0-.3.1-.5.1-.8v-.3h-2.8c-.9 0-1.6 0-2 .1l-.3-.5c.7.1 1.5.1 2.2.1h10.1c.2-.1.3-.3.5-.4-.2 0-.4-.1-.6-.1-.6-.1-1.1-.3-1.6-.6l-.4.2c-.9.3-1.9.5-2.9.6l-.1-.2.9-.3h-6v.2c0 .2-.2.3-.7.3h-.4c-.3 0-.4-.1-.4-.4v-5.5c.6.2 1.3.3 1.9.6h3.4l.3-.3c.3-.3.5-.4.6-.4.3.1.5.3.8.5.3.2.4.3.4.4s-.1.2-.2.2H86l.6.1c.3.1.5.2.5.3s-.1.1-.3.1-.3 0-.3.1l-.1.1H88c.1-.1.2-.1.3-.2.1-.1.3-.2.5-.3.2.1.4.2.6.4.2.1.3.3.3.3s-.1.2-.2.2h-1.6c0 .3 0 .6-.1.9h.5l.3-.3c.1-.1.3-.2.4-.3l.6.3c.3.2.4.4.4.4s-.1.2-.2.2h-2.1c0 .1-.1.1-.1.1.4 0 .9.1 1.3.2.3.1.4.2.4.3 0 .2-.1.4-.3.5-.1.1-.3.2-.5.2s-.4-.1-.5-.3l-.6-.6-.3.3c-.2.2-.5.4-.8.5-.5.2-1.1.4-1.6.4V32c.3-.1.6-.3.9-.4.2-.1.4-.3.6-.5l.3-.6c-.7 0-1.2 0-1.5.1l-.3-.5c.6.1 1.2.1 1.8.1 0-.2 0-.5.1-.9h-.7l-.1.1c-.3.2-.6.4-.9.5l-.1-.1c.2-.3.3-.5.5-.8.1-.3.2-.5.3-.8l-1-.1zm9.6 8.8v-.5h-2.3c-.3 0-.7 0-1-.2-.2-.1-.4-.3-.4-.5V35H89c0 .1-.1.2-.1.3-.3.4-.7.6-1.1.8-.6.3-1.2.5-1.8.6l-.2-.2c.3-.1.6-.3.9-.6.3-.2.5-.5.6-.7 0-.1.1-.1.1-.2h-1.8v1.9h8.6zm0 1.1v-.8h-8.6v.8h8.6zm-3.7-4.4h-1.3v.3c0 .3 0 .5-.1.8h1.4v-1.1zm2.2-2.6c.2.1.3.2.5.2.4-.3.7-.6 1-.9h-2.5c.2.3.6.5 1 .7zm-.7 4.5c0 .1.1.2.3.2h1.9V35H92v.5zm12.4-7.9c.4.3.6.5.6.6s-.2.2-.4.2-.6.2-.6.2c-.5 1-1.2 1.9-1.9 2.7.6.4 1.1.8 1.6 1.3.2.3.4.6.5.9.1.3.2.7.2 1 0 .4-.1.7-.3 1-.2.3-.5.5-.8.6-.2.1-.4.2-.7.2-.1 0-.2-.1-.3-.4s-.5-.6-1.2-.8v3.3c0 .2-.3.3-.8.4h-.5c-.3 0-.5-.1-.5-.4 0-.5.1-.9.1-1.4v-8c0-.6 0-1.3-.1-1.9.8.2 1.5.4 2.3.7h.8l.6-.6c.1-.1.3-.2.5-.2.2.1.6.3.9.6zm-3.3 7.2c.3.1.7.1 1 .1.2 0 .4 0 .5-.1.1-.2.2-.4.2-.7 0-.5-.1-.9-.3-1.4-.3-.5-.6-1-1-1.4.4-1 .8-2.1 1-3.2h-1.3l-.1 6.7zm5.2-1.6h4.4c.2-.1.4-.3.5-.5.4-.4.6-.6.7-.6.4.1.7.3.9.6.4.4.7.6.7.7s-.1.2-.3.2h-2.8V37c0 .3.1.4.2.4h.7c.2 0 .4-.1.6-.2.2-.5.4-1.1.6-1.7h.3l.1.9c0 .3.1.6.4.8.2.2.4.4.4.5 0 .2-.1.4-.4.5-.6.2-1.3.3-1.9.3h-.9c-.3 0-.6 0-.9-.1-.5 0-.9-.4-.8-.9v-4.1h-1c0 .8-.2 1.5-.5 2.2-.2.4-.5.9-.8 1.2-.4.4-.9.7-1.4.9-.8.4-1.6.7-2.4.9l-.2-.3c.5-.2 1-.5 1.4-.8.4-.3.8-.7 1.2-1.1.3-.4.5-.8.7-1.2.2-.6.3-1.2.3-1.8h-1.5l-.2-.5c.4.2 1.1.2 1.9.3zm3-5.9c.4 0 .6.1.6.3s-.1.1-.4.2-.4.2-.4.3v.9h1.6c.2-.2.4-.3.5-.4.1-.2.3-.3.5-.3.4.1.8.3 1.1.6.5.3.8.6.8.7s-.1.2-.4.2h-.5c-.5.3-1.1.6-1.7.8.4.3.6.5.6.6s-.1.2-.3.2H105l-.3-.5c.7.1 1.5.2 2.3.2h2.2c.2-.1.3-.3.5-.5s.4-.4.6-.5c.1 0 .2 0 .3.1.2-.3.3-.6.4-.9h-5.5c0 .3-.1.6-.1.7-.1.3-.3.5-.5.7-.1.1-.3.1-.5.1-.3 0-.6-.1-.8-.2-.2-.1-.3-.3-.3-.5 0-.1.2-.2.5-.4.3-.1.6-.3.9-.5.2-.2.4-.5.5-.9h.3v.7h1.8v-.8c0-.4 0-.7-.1-1.1.8 0 1.5.1 2.1.2z" fill="#202b6d"/><path d="M69 55.1h5.6L82 65.9V55.1h5.7v19.5H82l-7.3-10.7v10.7H69V55.1zm21.3 0h18.3v4.8h-6.1v14.7h-6V59.9h-6.2v-4.8zm33.7 0h6v11.6c0 1.1-.2 2.2-.5 3.3-.4 1-.9 1.9-1.7 2.7-.7.7-1.5 1.3-2.4 1.6-1.4.5-2.8.7-4.2.7-1 0-2.1-.1-3.1-.2s-1.9-.4-2.8-.8c-.8-.4-1.5-1-2.1-1.7-.6-.6-1-1.4-1.3-2.2-.3-1.1-.5-2.2-.6-3.3V55.1h6V67c-.1.9.3 1.8.9 2.5 1.4 1.2 3.5 1.2 4.9 0 .6-.7 1-1.6.9-2.5V55.1zm22.9 11.5l5.3 1.6c-.3 1.3-.9 2.6-1.7 3.7-.7 1-1.7 1.7-2.8 2.3-1.4.5-2.8.8-4.3.8-1.8.1-3.5-.2-5.2-.9-1.5-.7-2.7-1.8-3.5-3.2-1-1.8-1.6-3.9-1.5-5.9 0-3.2.9-5.7 2.6-7.4 1.7-1.7 4.1-2.6 7.3-2.6 2-.1 4.1.4 5.8 1.5 1.5 1.1 2.6 2.7 3.1 4.6l-5.3 1.2c-.1-.5-.3-.9-.6-1.3s-.7-.8-1.2-1.1c-1.7-.8-3.7-.3-4.8 1.3-.6 1.2-.9 2.5-.8 3.8 0 2.2.3 3.6 1 4.4 1.4 1.5 3.8 1.6 5.4.2.6-1 1-2 1.2-3zm8.2-11.5h6v6.8h6.6v-6.8h6v19.5h-6v-7.9h-6.6v7.9h-6V55.1z" opacity=".75"/><path d="M69 54.1h5.6L82 64.9V54.1h5.7v19.5H82l-7.3-10.7v10.7H69V54.1z" fill="#ed1e79"/><path class="st10" d="M90.3 54.1h18.3v4.8h-6.1v14.7h-6V58.9h-6.2v-4.8z"/><path d="M124 54.1h6v11.6c0 1.1-.2 2.2-.5 3.3-.4 1-.9 1.9-1.7 2.7-.7.7-1.5 1.3-2.4 1.6-1.4.5-2.8.7-4.2.7-1 0-2.1-.1-3.1-.2s-1.9-.4-2.8-.8c-.8-.4-1.5-1-2.1-1.7-.6-.6-1-1.4-1.3-2.2-.3-1.1-.5-2.2-.6-3.3V54.1h6V66c-.1.9.3 1.8.9 2.5 1.4 1.2 3.5 1.2 4.9 0 .6-.7 1-1.6.9-2.5V54.1z" fill="#fcee21"/><path d="M146.9 65.6l5.3 1.6c-.3 1.3-.9 2.6-1.7 3.7-.7 1-1.7 1.7-2.8 2.3-1.4.5-2.8.8-4.3.8-1.8.1-3.5-.2-5.2-.9-1.5-.7-2.7-1.8-3.5-3.2-1-1.8-1.6-3.9-1.5-6 0-3.2.9-5.7 2.6-7.4s4.1-2.6 7.3-2.6c2-.1 4.1.4 5.8 1.5 1.5 1.1 2.6 2.7 3.1 4.6l-5.3 1.2c-.1-.5-.3-.9-.6-1.3s-.7-.8-1.2-1.1c-1.7-.8-3.7-.3-4.8 1.3-.6 1.2-.9 2.5-.8 3.8 0 2.2.3 3.6 1 4.4 1.4 1.5 3.8 1.6 5.4.2.6-.9 1-1.9 1.2-2.9z" fill="#39b54a"/><path d="M155.1 54.1h6v6.8h6.6v-6.8h6v19.5h-6v-7.9h-6.6v7.9h-6V54.1z" fill="#29abe2"/><path fill="#fff" d="M53.8 53.4H46v-8.5h-9.9v8.5h-7.8v9.8h7.8v7.9H46v-7.9h7.8z"/><path class="st10" d="M123.5 20.2l-5.1 1.4c-.3.8-.5 1.7-.7 2.6 1.2 0 2.3.2 3.5.4l-.2 2.6c-1.1-.2-2.3-.3-3.4-.4 0 .9.5 1.8 1.3 2.2 1.1.6 2.4.9 3.6.9 1.4.1 2.7-.3 3.9-1 .4-.3.7-.9.8-1.4-1.2-.1-2.3-.3-3.4-.5l.3-2.6c1.1.1 2.2.2 3.2.3 0-.6-.2-1.2-.6-1.7-.3-.2-.7-.3-1.1-.3-.4 0-1.1 0-2 .1l.2-2.9c.8 0 1.5-.1 2.2-.1 1.1 0 2.1.5 2.8 1.3.9 1.4 1.2 3 1.1 4.7 0 2.4-.5 4.1-1.6 5.1-.5.4-1 .7-1.6.9-.2.9-.3 1.9-.4 2.8 0 1 .3 1.5.9 1.5.9-.2 1.7-.5 2.5-.8l.3 2.6c-1 .5-2.2.7-3.3.8h-.4c-.8 0-1.4-.4-1.9-1.1-.5-.7-.7-1.5-.7-2.3 0-1 .1-2 .3-3-.6.1-1.2.1-1.8.1-.9 0-1.7-.1-2.6-.3-.7 2-1.3 4.2-1.9 6.5l-2.3-1c.6-2.4 1.2-4.5 1.8-6.4h-.1c-1.5-.9-2.3-2.5-2.3-4.7 0-1.8.2-3.5.7-5.2l-.4-1.8c2.5-.8 5-1.5 7.2-2.1l1.2 2.8zm17.6-1.2c1.8-.1 3.7-.1 5.6-.1l.1 2.2h-2.7c-.1.5-.2.9-.3 1.4h3.6l.1 2c-4.8 0-9.6.3-14.5.8l-.1-2c1.1-.1 2.2-.2 3.4-.3-.1-.4-.2-.9-.3-1.3l-2.2.2-.1-2.2c1.6-.2 3.3-.3 5-.5-.2-.4-.3-.8-.4-1.2l2-1.1c.2.7.4 1.4.8 2.1zm-4.5 6.8c1.6-.3 3.2-.4 4.8-.5 1 0 2.1 0 3.1.2.9.1 1.7.6 2.3 1.2.6.8.9 1.7.8 2.7v.3c0 .8-.3 1.5-.9 2-.8.8-2.5 1.2-5.3 1.2h-.4v.7c1.5 0 3.1-.1 4.6-.1l.1 1.9c-1.6 0-3.1 0-4.5.1 0 .3 0 .6.1.9 2-.1 4.1-.2 6.2-.3l.1 2.1c-4.7.3-9.4.5-14.2.6l-.1-2.1c1.9 0 3.7-.1 5.6-.2v-.9c-1.5.1-3 .2-4.3.3l-.1-1.9c1.4-.1 2.9-.2 4.3-.3 0-.3 0-.5-.1-.8-1.2 0-2.3-.2-3.4-.6-1.2-.4-2-1.6-2-2.9.1-1.5.7-3 1.8-4.2l1.5.6zm1.4 1.8c-.8.1-1.6.3-2.4.5-.1.1-.1.2-.1.4h2.6c0-.3-.1-.7-.1-.9zm.3 2.4h-2.5c.2.2.4.4.7.5.6.2 1.2.4 1.9.4-.1-.2-.1-.5-.1-.9zm3.5-7.4c.1-.5.2-.9.3-1.4-1.3 0-2.6.1-3.8.2.1.4.2.9.4 1.3l3.1-.1zm-1.4 4.7c0 .3.1.7.1 1.1h2.9l-.1 1.6h-2.7c0 .3 0 .7.1 1h.1c.8 0 1.7 0 2.5-.1.5 0 .9-.2 1.3-.5.3-.2.5-.6.4-1 .1-.8-.3-1.5-1-1.9-1-.2-2-.3-3.1-.3l-.5.1zm18.6-9.4l-.1 2.1-3.5-.3c-.1.3-.2.5-.3.8.4 0 .8.1 1.2.1.9.1 1.8.1 2.7.2l-.1 1.6-1.8-.2c-.2.3-.4.6-.5.9.7 0 1.4 0 2.2-.1l.1 1.6c-1 0-2 .1-3.1.1.8.3 1.6.6 2.4 1l-.2 1 1.4-.3.3 2c-1.6.3-3.1.5-4.7.6h-.4c-1.1.1-2.2-.4-3-1.2-.7-.8-1.1-1.8-1-2.8 0-1.9.3-3.8.6-5.7h-.5l.2-2c2.8.1 5.5.3 8.1.6zm6 5.6c.3.3.5.8.5 1.2 0 .6-.3 1.2-.7 1.6-.2.3-.4.5-.7.7.7.2 1.5.4 2.2.4l-.4 1.9c-1.2 0-2.5-.3-3.6-.8l-1.5 1.2 4.9.4-.1 1.7c-1.9-.1-3.7-.2-5.4-.3 0 .2-.1.5-.1.7 1.4-.1 2.7.2 4 .6 1.1.4 1.6 1.3 1.6 2.8v.4c.1.9-.3 1.8-1.1 2.3-1 .4-2.1.6-3.2.6h-6.3c-1.1.1-2.2-.1-3.2-.7-.7-.7-1-1.6-.9-2.5 0-1.2.4-2.5 1-3.5l1.5.4c.8-.1 1.5-.2 2.3-.2 0-.4 0-.7.1-1-1.6-.1-3.1-.2-4.6-.3l.2-1.7c3 .1 6 .3 8.9.5l-.4-1.5c.3-.2.6-.5.8-.7-.3-.2-.6-.4-.8-.6l.3-1.2-.9.5-.3-1.9c1.4-.7 2.9-1.1 4.5-1.2.5-.2 1-.1 1.4.2zm-9.9 2.3c-.3.5-.5.9-.7 1.4l-1-1.3c.2-.4.4-.8.6-1.1h-.9l-.1-1.6h1.8c.2-.4.4-.7.6-1.1h-.8c-.1.3-.1.5-.2.7l-1.3-.4c.2-1 .4-1.9.8-2.8l-.8-.1c-.4 1.5-.6 3.1-.7 4.6 0 .8.2 1.6.6 2.3.3.5.8.8 1.4.8h.3c1-.1 1.9-.2 2.9-.4-.9-.4-1.7-.7-2.5-1zM160 36l-1.6-.2v-2h-.9c0 .7-.1 1.4-.1 2.1l-1.6-.2v-1.8l-2.4.3c-.1.2-.1.4-.1.6l1.8.2-.1 1.5-1.7-.2c0 .2 0 .3.1.5s.2.3.4.3h6.8c.8 0 1.6 0 2.3-.2.3-.5.5-1.1.4-1.7 0-.5-.3-.9-.7-1.1-.9-.3-1.8-.4-2.8-.4.2.9.2 1.6.2 2.3zm-1.4-4.7h-1v.9h1v-.9zm2.5-13.5c.7-.3 1.4-.5 2.1-.6 1 0 1.5.6 1.6 1.7 0 .2-.1.4-.2.5-.1.3-.2.7-.3 1 0 .3.1.4.4.4.5 0 1-.1 1.5-.4l.2 1.9c-.7.5-1.6.7-2.5.7-.9 0-1.3-.5-1.3-1.6 0-.5.1-1 .3-1.5 0-.1.1-.1.1-.2 0-.2-.2-.4-.5-.4-.4.1-.9.3-1.3.5.1 1 .1 2 .2 3.1l-1.7.2c-.1-1.8-.3-3.7-.4-5.5l1.7-.2c.1.2.1.3.1.4zm1.2 8.4c.5-.4.9-.8 1.3-1.2 0-.1-.1-.2-.4-.2-.7.1-1.5.2-2.2.5.4.4.8.7 1.3.9zm11.1-4.3c.5.8.8 1.7.8 2.6 0 1.2-.3 2.4-.9 3.4.9.8 1.4 1.9 1.4 3.1 0 1-.3 2.1-1 2.9-.5.7-1.3 1.1-2.2 1.1.1 1 .2 2 .3 3.1l-2.1.3c-.4-4.7-.8-8.8-1.1-12.5l2.1-.3c.2 2.1.4 4.2.6 6.5.3 0 .6-.1.9-.4.2-.1.4-.4.4-.7 0-.3-.1-.6-.2-.9-.1-.2-.4-.4-.6-.5-.4-.2-.6-.6-.6-1 0-.3.1-.7.3-.9.2-.4.3-.8.5-1.2.1-.4.2-.8.2-1.1 0-.9-.3-1.4-.8-1.4-.9.1-1.7.5-2.3 1.1l-.2-3c.9-.6 2-.9 3.1-1 .4-.1 1 .2 1.4.8zm6.9-2.6c.5-.1.9-.1 1.4-.1.7 0 1.5.3 1.9.9.5.6.8 1.4.8 2.3-.1 1.4-.3 2.8-.7 4.2l-1.7-.4-.1 1.2-5.4-.3.2-2.7c1.7 0 3.4.1 5.2.3.1-.4.2-.8.2-1.3 0-.9-.5-1.3-1.6-1.3-1.6.1-3.1.6-4.4 1.5.1 1.1.2 2.1.4 3.2l-2 .3c-.3-2.5-.6-4.7-.8-6.7l2-.3c0 .2 0 .5.1.7.6-.3 1.3-.6 2-.8-.2-.5-.4-1.1-.6-1.7l2.1-1.1c.3.7.6 1.4 1 2.1zm3.9 12.1c-.7.1-1.4.2-2 .2-.3 1-.5 2-.5 3 0 .3 0 .6.1.8.1.2.3.3.5.3.7-.2 1.4-.5 1.9-1l.4 2.7c-.7.5-1.6.9-2.5 1-.7.1-1.4-.2-1.9-.8-.5-.6-.7-1.4-.7-2.1 0-1.2.1-2.5.4-3.7-.5 0-.9.1-1.4.1-.4 2.2-.6 4.4-.7 6.5l-2.3-.3c0-2.1.2-4.1.6-6.1H175l-.2-2.9c3-.1 6-.4 9.2-.7l.2 3z"/></svg>