<svg xmlns="http://www.w3.org/2000/svg" viewBox="0 0 300 300"><path d="M0 21.43v21.43h42.86V0H0v21.43zm36.73 0v15.3H6.12V6.12h30.61v15.31z"/><path d="M49 12.24v12.25h6.1v6.12H49v12.25h6.1V49h6.12v6.1H55.1v6.12H49V55.1h-6.14V49H24.49v6.1h-6.12v12.25h6.12v6.12H12.24V61.22H6.12V55.1h6.12V49H0v12.22h6.12v6.13H0v24.49h6.12V98H0v12.2h6.12v6.13h12.25v6.12h6.12v-6.12h-6.12v-12.25h6.12v6.12h6.12v12.25h6.12v6.12h-6.12v6.12h-6.12v-6.12H12.24v6.12H6.12v-12.24H0v18.37h12.24v-6.13h6.13v6.13h6.12v6.12H12.24v24.49H6.12v-6.13H0v6.13h6.12v6.12H0v12.24h6.12V202H0v18.37h6.12v6.12h6.12v6.12H6.12v12.29H0v6.1h18.37v-6.1h6.12v-6.13H12.24v-6.12h6.13v-18.37h6.12v-6.12h6.12v18.37h12.25v6.12H30.61v6.12h12.25v6.13h-6.13v6.1H49v6.12h6.1v6.12H49v12.25h6.1v-6.12h6.12v18.36H49V300h12.22v-6.12h6.13v-6.13h6.12V300h6.12v-18.37h-6.12v-6.12h12.24v12.24H98v-6.12h18.37v-6.12h12.24v6.12h-6.12v6.12h-18.41V300h18.37v-6.12h6.12V300h6.12v-6.12h6.13v-12.25h-6.13v-6.12h24.49v6.12h6.12V300h6.13v-12.25h6.12v-6.12h6.12v12.25h-6.12V300h6.12v-6.12h6.12v-6.13h6.13V300h30.61v-6.12h6.12V300h6.12v-6.12h6.13V300h6.1v-6.12h-6.1v-6.13h12.24v-6.12h6.12V300h12.25v-6.12h-6.12v-12.25h-6.13v-6.12h12.25v6.12h6.12V300H300v-6.12h-6.12v-6.13H300v-6.12h-18.37v-6.12h12.25v-12.25h-12.25v6.13h-6.12v-12.25h12.24V244.9h6.13v12.24H300v-18.37h-12.25v-6.12h-6.12v-6.12h12.25v-6.12H300v-6.13h-24.49v-6.12H300V202h-30.61v-6.12h6.12v-18.33h-6.12v6.12h-6.13v6.12h-6.12V202H251v6.12h-6.1V202h-12.25v-12.21h12.25v6.13h6.1v-24.49h6.12v6.12h6.12v-6.12h18.37v6.12h6.12v6.12h6.13v-6.12h-6.13V165.3h-6.12v-6.12h6.12v-6.12h6.13v6.12H300v-12.24h-6.12v-6.12h-6.13v-6.13h6.13v-6.12H300v-6.12h-6.12v-6.12h-18.37v-12.25h6.12V98h6.12v12.2H300V98h-6.12v-6.16h-12.25V98h-12.24v36.73h-6.13v-12.28H251v-6.12h-24.47V98h6.12v12.2h12.25v-6.12h-6.13V98H251v-6.16h6.12V98h6.12V79.59H251v-6.12h6.12V61.22h6.12v12.25h6.13v6.12h6.12v6.12h6.12v-6.12h6.12v6.12h6.13v-6.12H300v-6.12h-6.12v-6.12h-6.13v-6.13H300V49h-24.49v6.1h-6.12V49h-6.13v6.1H251V49h-6.1v6.1h-6.13V49h-6.12v6.1h-6.12V36.73h6.12v6.13h6.12V30.61h-18.36V55.1h-6.13V49h-6.12v6.1H202V36.73h-6.12v-6.12h12.24v12.25h6.12V30.61h-6.12v-6.12h-12.2v-6.12h24.49v-6.13h6.12V0h-12.25v6.12h-6.12V0H202v6.12h-6.12V0h-24.45v12.24h6.12v6.13h-6.12v6.12h-6.13v-6.12h-12.24v-6.13h-6.12v6.13h6.12v6.12h-18.37v18.37h-6.12V24.49h-6.12V6.12h6.12V0h-6.12v6.12h-6.12v6.12h-6.13V0h-6.12v12.24H85.71v6.13h-6.12v18.36h-6.12V49H61.22v-6.14h6.13v-6.13h-6.13V24.49H55.1v-6.12h18.37V6.12H98V0H73.47v6.12H55.1V0H49v12.24zm146.94 0v6.13h-12.27v6.12h-6.12v6.12h12.24v6.12h6.13v6.13h-6.13V55.1h-6.12v12.25h6.12v-6.13h6.13V55.1H202v6.12h6.12V55.1h6.12v6.12h6.13V55.1h6.12v18.37h6.12v6.12h-6.12v6.12h6.12v6.13h6.12v-6.13h6.13v-6.12h-6.13V67.35h6.13v12.24H251v12.25h-12.23V98h-6.12v-6.16h-18.37v-6.13h-6.12v-6.12h18.37v-6.12H202V61.22h-6.12v6.13h-6.13v6.12h6.13v6.12H202v12.25h6.12V98H202v-6.16h-6.12v12.24H202v6.12h6.12v-6.12h6.12v12.25h6.13v6.12h-6.13v18.37h6.13v-12.25h6.12v-6.12h18.41v6.12h6.1v6.12h-6.1v-6.12h-12.25v12.25h-6.12v6.12h6.12v6.12h-6.12v-6.12h-12.25v-6.12h-6.12v12.24h12.25v6.12h6.12v6.12h-6.12v-6.12h-6.13v6.12h-6.12v6.13h-12.24v6.12H202v12.24h-6.12v-12.24h-6.13v-6.12h-6.12v6.12h-6.12v6.12h-6.12v6.12h6.12v6.13h6.12v-12.25h6.12v12.25h6.13v12.24H202V202h6.12v-6.12h6.12v-12.21h-6.12v-6.12h18.37v-6.12h6.12v18.36h-6.12v-6.12h-6.12v12.25h-6.13v12.24h6.13V202h12.24v6.12h6.12v6.12h-12.2v6.13h18.37v-6.13h6.1v-6.12h18.37v6.12h6.12v6.13h6.12v6.12h-12.22v6.12h-6.13v6.12h6.13v6.13H244.9V251h-18.37v6.12h-6.12V251h6.12v-6.1h-12.25v18.36h-6.12v6.13h12.25v6.12h-6.13v6.12h-6.12v-12.24h-12.24v6.12h-6.13v-6.12h6.13V251h-6.13v-6.1h-6.12v-6.13h-6.12V251h-6.12v6.12h-6.13V251h6.13v-12.23h-12.25v6.13h-6.12v-6.13h6.12v-6.12h-6.12v-6.12h-12.24v-6.12h12.24v6.12h6.12v6.12h36.74v-6.12h-6.13v-6.12h-6.12v6.12h-12.24v-6.12h-6.13v-6.13h-6.12v-6.12h-6.12V202h-12.24v6.12h6.12v6.12h-12.25v6.13h-12.24v6.12H110.2v6.12h6.13v6.12h6.12v-6.12h6.12v-6.12h6.12v6.12h6.13v6.12h6.12v6.13h-12.25v18.36h-6.12v6.13h6.12v6.12h-6.12v-6.12h-6.12v-6.13h-6.12v6.13h-6.13v6.12H91.84v-6.12h-6.13v-6.13h-6.12v6.13h-6.12v6.12h-6.12v-6.12h-6.13v-6.13h12.25v-6.12h6.12V251H67.35v-6.1h6.12v-6.13H61.22V251H55.1v-12.23h6.12v-6.12H49v-12.24h12.22v-6.13H42.86v6.13h-6.13v-6.13h6.13v-6.12H30.61V202H18.37v12.24H6.12v-6.12h6.12V202h6.13v-12.21h-6.13v-6.12h6.13v-6.12h6.12v6.12h6.12v-6.12h12.25v6.12H30.61v6.12h12.25v6.13H30.61V202H55.1v6.12h6.12v6.12h24.49v6.13h6.13v-12.21H98V202h-6.16v-12.21h-6.13v18.37H67.35v-12.24H55.1v-6.13H49v-6.12h6.1v-6.12H49V165.3h12.22v6.13h6.13v-12.25h-6.13v-6.12H55.1v-6.12h12.25v-6.12h-6.13v-6.13H55.1v-6.12h6.12v6.12h6.13v6.13h6.12v6.12h-6.12v6.12h6.12v6.12h6.12v-12.24h6.12v-6.12h-6.12v-6.13h-6.12v-6.12h-6.12v-6.12h-6.13v-6.12h6.13v-12.25H49v6.12h6.1v6.13H49v12.24h-6.14v6.12h-6.13v-6.12h6.13v-6.12h-6.13v-6.12H49v-6.13H36.73v-6.12h6.13V98H30.61V85.71h6.12v-6.12H24.49v-6.12h12.24v-6.12H49v6.12H36.73v6.12h6.13v6.12h-6.13v6.13H49V79.59h6.1v6.12h6.12v-6.12h6.13v-6.12h-6.13v-6.12H55.1v-6.13h6.12V55.1h6.13v6.12h6.12V49h12.24v12.22h6.13v6.13H98V49h6.12V36.73H98v6.13h-6.16v-6.13h-6.13v6.13h-6.12v-6.13h6.12v-6.12h6.13V18.37H98v6.12h6.12v-6.12h6.12V55.1h6.13V30.61h6.12v12.25h6.12V49h6.12v6.1h-6.12V49h-6.12v12.22h12.24v12.25h-12.28v-6.12h-6.12v6.12h-6.13v6.12H91.84v-6.12h-6.13v-6.12h-6.12v-6.13h-6.12v12.25h6.12v6.12h6.12v24.49h6.13V91.84H98v-6.13h18.37v-6.12h12.24v6.12h-6.12v6.13H110.2V98h-6.12v12.2h6.12v-6.12h12.25V98h6.12v-6.16h6.12v-6.13h6.13V67.35h6.12v-6.13h-6.12V55.1h12.24v12.25h6.12v18.36h6.12v6.13h6.13V67.35h6.12V55.1h-6.12v6.12h-6.13V55.1h6.13V42.86h-6.13v-6.13h6.13v6.13h6.12V30.61h-6.12v-6.12h6.12v-6.12h6.12v-6.13h6.12V6.12h6.13v6.12zm12.24-3.06v3.06H202V6.12h6.12v3.06zm-49 30.62V49h-18.36V30.61h18.36v9.19zm-98 0v3.06H55.1v-6.13h6.12v3.07zM30.61 61.22v6.13h-6.12V55.1h6.12v6.12zm12.25-3.06v3.06h-6.13V55.1h6.13v3.06zm208.16 0v3.06h-6.12V55.1h6.1v3.06zm18.37 0v3.06h6.12V55.1h12.24v6.12h-12.24v6.13h6.12v6.12h-6.12v-6.12h-6.12v-6.13h-6.13V55.1h6.13v3.06zM12.24 76.53v3.06h6.13v6.12h6.12v6.13h-6.12v-6.13h-6.13v-6.12H6.12v-6.12h6.12v3.06zm281.64 0v3.06h-6.13v-6.12h6.13v3.06zM18.37 101v3.06H6.12V98h12.25v3zm269.38 30.61v3.06h-6.12v12.25h6.12v6.12h-6.12v6.12h-6.12v-30.59h12.24v3.06zM49 150v9.18H30.61v-18.36H49V150zm195.92-6.12v3.06h-6.13v-6.12h6.13v3.06zm24.47 6.12v9.18H251v-18.36h18.37V150zm-244.9 12.24v3.06h-6.12v-6.12h6.12v3.06zm220.41 0v3.06h6.1v6.13h-6.1v12.24h-6.13v-12.24h6.13v-6.13h-6.13v-6.12h6.13v3.06zm-202 6.13v3.06H30.61v-6.13h12.25v3.07zm238.73 76.53v6.1h-6.12v-12.23h6.12v6.13zm-122.45 15.3v9.19h-18.36V251h18.36v9.18zm110.21 0v9.19H251V251h18.37v9.18zm-79.6 0v3.06h-12.24v-6.12h12.24v3.06zm55.11 3.06v6.13h-6.13v6.12h-6.12v12.24h6.12v6.13h-6.12v-6.13h-6.12v6.13h-6.12v-6.13h6.12v-12.24h6.12v-6.12h-6.12v-6.13h12.24v-6.12h6.13v6.12zm-73.47 3.06v3.07h6.12v12.24H165.3v-6.12h6.13v-6.12h-6.13v-6.13h6.13v3.06zM202 284.69v3.06h-6.12v-6.12H202v3.06z"/><path d="M146.94 3.06v3.06h18.37V0h-18.37v3.06zm97.96 0v3.06h-12.25v6.12h6.12v12.25h6.13v-6.12h6.12V0h-6.12v3.06zm12.24 18.37v21.43H300V0h-42.86v21.43zm36.74 0v15.3h-30.62V6.12h30.62v15.31zm-159.19-9.19v6.13h6.12V6.12h-6.12v6.12zm91.84 9.19v3.06h6.12v-6.12h-6.12v3.06zM67.35 27.55v3.06h6.12v-6.12h-6.12v3.06zM244.9 39.8v3.06h6.12v-6.13h-6.12v3.07zm6.12 67.34v3.06h6.12v6.13h6.12v-12.25h-12.24v3.06zm30.61 85.72v3.06h12.25v-6.13h-12.25v3.07zM0 278.57V300h42.86v-42.86H0v21.43zm36.73 0v15.31H6.12v-30.62h30.61v15.31zm116.33 15.31V300h6.12v-12.25h-6.12v6.13zm-67.35 3.06V300h6.13v-6.12h-6.13v3.06zM12.24 21.43v9.18h18.37V12.24H12.24v9.19zm79.6 12.24v3.06h6.12v-6.12h-6.12v3.06zm91.83 6.13v3.06h6.12v-6.13h-6.12v3.07zm-79.59 21.42v6.13h-6.12v6.12h6.12v-6.12h6.12V55.1h-6.12v6.12zm-42.86 3.06v3.07h6.13v-6.13h-6.13v3.06zm85.72 12.25v9.18h-6.12v24.49h-6.13v-6.12h-12.24v6.12h6.12v6.13h-6.12v12.24H110.2v-6.12h6.13V110.2h-6.13v6.13h-6.12v12.24h6.12v6.12h6.13v6.13h-6.13v6.12h-6.12v-12.25H98v6.13h-6.16v-12.25H98v-24.49h-6.16v6.12h-6.13v-6.12H73.47v12.25h12.24v6.12h6.13v6.12H79.59v6.12h6.12v6.13h6.13v6.12h-6.13v12.24H98v6.12h12.2v-6.12h6.13v-6.12h6.12v6.12h6.12v6.12h-6.12v6.13H110.2v6.12H91.84v-6.12h-6.13v-6.13H73.47v18.37h-6.12v-6.12h-6.13v6.12H55.1v6.12h6.12v-6.12h6.13v6.12h6.12v6.13h6.12v-18.37h6.12v6.12h6.13v6.12H98v-6.12h6.12V202h18.37v6.12H110.2v6.12h-6.12v12.25h6.12v-6.12h12.25v-12.21h6.12v6.12h6.12V202h6.13v-12.21h6.12v-6.12h6.12V202h18.37v6.12h-6.13v6.12h6.13v6.13h6.12v-12.21h6.12v6.12h6.12v6.13h6.13v6.12H202v18.37h-6.12v6.1H202v6.12h6.12v-18.35h6.12v-6.12h6.13v6.12h6.12v6.13h6.12v-6.13h6.12v-12.24h-6.12v12.24h-6.12v-6.12h-6.12v-6.12h6.12v-6.12h-6.12v-6.13h-12.21v6.13h6.12v12.24h-6.12v-6.12H202v-12.25h-12.21v-18.36h-6.12V202h-12.24v-12.21h-12.25v-12.24h6.12v6.12h6.13v-24.49h12.24v6.12h6.12v6.13h6.13v-12.25h12.24v-6.12H202v-6.12h-6.12v12.24h-6.13v-12.24h-6.12v-12.25h6.12v6.13H202v-6.13h6.12v-12.24h-12.2v6.12H202v6.12h-12.21v-18.36h6.13v-6.13h-6.13v-6.12h-6.12V98h-6.12v12.2h12.24v6.13h-6.12v12.24h-6.12v18.37h6.12v6.12h-12.24V110.2h-6.13V98h-6.12V85.71h-6.12V67.35h-6.12v9.18zm6.12 18.37V98h-6.12v-6.16h6.12v3.06zm6.12 12.24v3.06h6.12v18.37h-6.12v6.12h-6.12v-12.24h6.12v-6.12h-12.24v6.12h-6.12v-6.12h6.12v-12.25h12.24v3.06zm-12.24 24.49v3.06h-18.37v6.13h6.12v18.36h-6.12v-6.12h-6.12v-6.12h-6.12v-6.12h6.12v-6.13h6.12v-6.12h18.37v3.06zM159.18 150v9.18h-18.36v-18.36h18.36V150zm-49 6.12v3.06H98v-6.12h12.2v3.06zm36.74 12.25v3.06h12.24v6.12h-12.22v6.12h-6.12v6.12h-6.13v6.13h-6.12v-12.25h-6.12v6.12H110.2v-6.12h6.13v-6.12h12.24v-6.12h6.12v-6.13h12.25v3.07z"/><path d="M177.55 79.59v12.25h6.12v-6.13h6.12v6.13h6.13v-6.13h-6.13V73.47h-6.12v-6.12h-6.12v12.24zm-110.2 3.06v3.06h6.12v-6.12h-6.12v3.06zM48.98 94.9v3.06h6.12v-6.12h-6.12v3.06zm12.24 0v3.06h12.25v-6.12H61.22v3.06zm195.92 122.44v3.07H244.9v6.12h24.49v-6.12h-6.13v-6.13h-6.12v3.06zm-189.79 6.13v3.06h-6.13v6.12h6.13v-6.12h6.12v6.12h12.24V251h6.13v6.12H98v6.12h-6.16v6.13H98v-6.13h12.2V251h6.13v6.12h6.12v6.12h6.12V251h-12.24v-12.23h-6.13v-6.12H98v6.12h-6.16v-12.24H98v-6.12h-6.16v6.12H79.59v-6.12H67.35v3.06zm42.85 18.36v3.07h-6.12v12.24H98V244.9h6.12v-6.13h6.12v3.06zm18.37-3.06v6.13h6.12v-12.25h-6.12v6.12zM146.94 39.8v3.06h6.12v-6.13h-6.12v3.07zM36.73 150v3.06h6.13v-6.12h-6.13V150zm220.41 0v3.06h6.12v-6.12h-6.12V150zm-110.2 110.2v3.06h6.12v-6.12h-6.12v3.06zm110.2 0v3.06h6.12v-6.12h-6.12v3.06zm12.25-238.77v9.18h18.36V12.24h-18.36v9.19zM12.24 278.57v9.18h18.37v-18.36H12.24v9.18zM146.94 150v3.06h6.12v-6.12h-6.12V150zm-6.13 24.49v3.06h-6.12v6.12h6.12v-6.12h6.13v-6.12h-6.13v3.06z"/></svg>