<?xml version="1.0" encoding="utf-8"?>
<!-- Generator: Adobe Illustrator 24.0.0, SVG Export Plug-In . SVG Version: 6.00 Build 0)  -->
<svg version="1.1" id="圖層_1" xmlns="http://www.w3.org/2000/svg" xmlns:xlink="http://www.w3.org/1999/xlink" x="0px" y="0px"
	 viewBox="0 0 188 78" style="enable-background:new 0 0 188 78;" xml:space="preserve">
<style type="text/css">
	.st0{fill:url(#SVGID_1_);}
	.st1{fill:url(#SVGID_2_);}
	.st2{fill:url(#SVGID_3_);}
	.st3{fill:url(#SVGID_4_);}
	.st4{fill:url(#SVGID_5_);}
	.st5{fill:url(#SVGID_6_);}
	.st6{fill:url(#SVGID_7_);}
	.st7{fill:#202B6D;}
	.st8{opacity:0.75;}
	.st9{fill:#ED1E79;}
	.st10{fill:#F15A24;}
	.st11{fill:#FCEE21;}
	.st12{fill:#39B54A;}
	.st13{fill:#29ABE2;}
	.st14{fill:#FFFFFF;}
</style>
<title>logo-ntuch</title>
<g>
	
		<linearGradient id="SVGID_1_" gradientUnits="userSpaceOnUse" x1="-842.2047" y1="37.57" x2="-713.8947" y2="37.57" gradientTransform="matrix(1.47 0 0 -1 1235.34 80)">
		<stop  offset="0" style="stop-color:#F15A24;stop-opacity:0"/>
		<stop  offset="0.5" style="stop-color:#F15A24"/>
		<stop  offset="1" style="stop-color:#F15A24;stop-opacity:0"/>
	</linearGradient>
	<rect y="41.4" class="st0" width="188" height="2"/>
	
		<radialGradient id="SVGID_2_" cx="38.9" cy="25.68" r="20.29" gradientTransform="matrix(1 0 0 -1 0 80)" gradientUnits="userSpaceOnUse">
		<stop  offset="0.17" style="stop-color:#8CC63F"/>
		<stop  offset="1" style="stop-color:#006837"/>
	</radialGradient>
	<circle class="st1" cx="41" cy="58" r="20"/>
	
		<radialGradient id="SVGID_3_" cx="35.92" cy="62.95" r="28.79" gradientTransform="matrix(1 0 0 -1 0 80)" gradientUnits="userSpaceOnUse">
		<stop  offset="0" style="stop-color:#16367D"/>
		<stop  offset="1" style="stop-color:#16153F"/>
	</radialGradient>
	<path class="st2" d="M45.5,19.8c-1.5,0.1-2.9-0.5-3.8-1.6c-0.4-0.4-0.4-1.1,0-1.5c0.1-0.1,0.2-0.2,0.4-0.2c0.5-0.3,1-0.4,1.5-0.4
		c2,0.1,4-0.5,5.7-1.7c0.7-0.4,1.6-0.3,2.3-0.6c0.6-0.3,1.1-0.8,1.4-1.4c1.1-2.2,0.5-4.4,0.7-6.6c0.1-1.1,0.1-2.1,0-3.2
		c0-0.6,0.2-0.8,0.8-0.8c0.7,0,1.4,0,2.1-0.1c0.5-0.1,1,0.1,1.2,0.6C58,5.5,57.1,8.7,57,12c1-0.3,2.1-0.5,3.1-0.8
		c0.1,0,0.3-0.1,0.4-0.2c1.3-0.6,2.6-1.1,3.9-1.8c0.5-0.2,1.1-0.4,1.3-1C65.8,8,66,7.9,66.3,7.9c1.2,0.1,2.6-0.6,3.7,0.3
		c0.5,0.5,1.2,0.1,1.7,0.5c0,0.7,0,1.4,0,2s-0.2,0.8-0.8,0.8c-1-0.1-2.1,0-3.1,0.3c-3,0.9-5.9,2-8.9,3c-0.7,0.2-1,0.9-1.8,0.9
		s-0.7,0.3-0.8,0.8c-0.1,1.2-0.5,2.3-1.1,3.3c-1,2.3-2,4.6-2.7,7c-0.1,0.3,0.1,0.8-0.3,1c-1.3,0.8-1.8,2.3-2.8,3.3
		c-0.5,0.6-1.2,1-2,1.3c-1.5,0.4-3.1,0.7-4.7,0.8c-0.5,0-1,0.2-1.6,0c-0.1-0.4,0.2-0.4,0.4-0.5c2.4-1.9,4.1-4.3,6.1-6.5
		c0.8-1,1.3-2.2,1.5-3.4c0.3-1.3,1-2.6,1.4-3.9c0.4-0.2,0.6-0.7,0.4-1.1c0,0,0,0,0-0.1c-0.1-0.2-0.3-0.3-0.5-0.3c0,0-0.1,0-0.1,0
		C48.8,18.3,47,18.7,45.5,19.8z"/>
	
		<radialGradient id="SVGID_4_" cx="35.92" cy="62.95" r="28.79" gradientTransform="matrix(1 0 0 -1 0 80)" gradientUnits="userSpaceOnUse">
		<stop  offset="0" style="stop-color:#16367D"/>
		<stop  offset="1" style="stop-color:#16153F"/>
	</radialGradient>
	<path class="st3" d="M57.3,24.3c1.3-0.2,2.6-0.3,3.9-0.2c1.5,0.3,3.2,0.4,4.5,1.4c0.9,0.8,2,1.3,3.2,1.5c0,0.2,0.2,0.4,0.4,0.5
		c1,0.8,2.1,1.3,3.2,1.7c0.1,0,0.1,0,0.2,0c1.5,1.8,3,3.6,4.6,5.5c0.6,0.7,0.8,1.8,0.3,2.7c-0.6,1.4-2.1,2.2-3.6,2
		c-2.1,0.2-3.1-1.4-4.4-2.6c-1.5-1.4-2.5-3.4-4.3-4.5c-1.2-1.4-2.9-1.6-4.5-2.1l-0.4-0.2c-0.1-0.2-0.2-0.2-0.4-0.2
		c-1.7-0.8-3.3-2-4.5-3.4c0-0.4,0-0.8,0-1.3c0-0.5,0.3-0.6,0.6-0.7l0.4,0.1c0.2,0.2,0.3,0.1,0.5,0L57.3,24.3L57.3,24.3z"/>
	
		<radialGradient id="SVGID_5_" cx="35.92" cy="62.95" r="28.79" gradientTransform="matrix(1 0 0 -1 0 80)" gradientUnits="userSpaceOnUse">
		<stop  offset="0" style="stop-color:#16367D"/>
		<stop  offset="1" style="stop-color:#16153F"/>
	</radialGradient>
	<path class="st4" d="M28.8,16.2c-1.5,1-2.8,2.2-4.6,2.6c-0.2,0-0.4,0.2-0.5-0.1c0-0.1,0.2-0.2,0.3-0.3c2.3-0.8,3.8-2.5,5.2-4.4
		c0.2-0.4,0.2-0.9-0.1-1.2c-0.3-0.3-0.7,0-1.1,0.2c-0.9,0.6-1.8,1.1-2.8,1.6c-2.4,1.3-4.7,2.8-6.8,4.4c-1.1,0.8-2.4,1.5-3.7,1.9
		c-1.6,0.4-3.2,1.1-4.5,2.1c-1.1,0.9-2.4,1.6-3.7,2.2c-1.4,0.5-2.9-0.3-3.4-1.7C3,23.2,3,22.9,3,22.6c0-1.2-0.3-2.5,0.8-3.5
		c0.3-0.4,0.8-0.7,1.4-0.6c2.1,0.3,4.1-0.5,5.5-2.1c1.6-1.6,3.6-2.8,4.9-4.7c1.2-1.7,2.8-3.1,4.1-4.7c1.2-1.3,1.8-3.1,1.5-4.9
		c-0.1-0.7-0.4-1.6,0.6-2l0.2-0.1L22.4,0L24,0.2l0.2,0.2c0,0.2,0.1,0.3,0.3,0.3l0.4,0.5c0.8,1,1.6,2,2.5,2.9
		c0.5,0.4,0.6,1.1,0.4,1.8C27,8,25.1,9,23.5,10c-2,1.3-4.1,2.4-6.3,3.3c-3,0.6-4.6,3.3-6.9,4.9c1-0.2,2-0.6,2.9-1.1l4.1-1.2
		c1.7-0.4,3.3-1,4.9-1.8c2.1-0.8,4.1-1.7,6-2.9c0.3-0.2,0.8-0.3,0.5-0.8s-0.3-1-0.4-1.5c0.2-0.7,1-0.3,1.4-0.8c1-0.1,1.6,0.6,2.3,1
		c0.4,0.5,0.9,0.8,1.5,1c1.9,0.5,3.1,2.4,2.8,4.3c0,0.9-0.4,1.5-1.5,1.5c-0.9-0.1-1.8-0.1-2.7,0c-1.1,0.1-2.2-0.3-3.2,0.3l0,0
		C28.9,16.1,28.8,16.1,28.8,16.2z"/>
	
		<radialGradient id="SVGID_6_" cx="35.92" cy="62.95" r="28.79" gradientTransform="matrix(1 0 0 -1 0 80)" gradientUnits="userSpaceOnUse">
		<stop  offset="0" style="stop-color:#16367D"/>
		<stop  offset="1" style="stop-color:#16153F"/>
	</radialGradient>
	<path class="st5" d="M16.2,22.4c0.3,0,0.6,0,1,0c1.2,0,1.5,0.3,1.4,1.5c-0.4,0.5-0.6,1.1-0.7,1.7c-0.1,2.9-0.1,5.7,0.1,8.6
		c0,0.3,0,0.7,0.5,0.7c0.8,0,1.7,0.3,2.5-0.3c1.9-0.7,3.8-1.2,5.7-1.5c0.9,0,1.6-0.7,1.6-1.5c0-0.1,0-0.1,0-0.2
		c0.2-1.6,0.6-3.1,1.3-4.5l0,0l0.2-0.2c0.3-0.7,0.9-1.2,1.1-2c0.1-0.5,0-0.6-0.5-0.7c-1.2-0.1-2.4,0.1-3.4,0.7c-2.1,1-4,2.1-6,3.3
		C20.6,28,20.3,28.2,20,28s-0.2-0.6-0.1-0.9c0.3-0.6,0.4-1.2,0.3-1.9c0-0.1,0-0.1,0-0.2l0.1,0V25c0.3-0.1,0.6-0.2,0.9-0.2
		c1.9,0,3.7-0.7,5.1-2.1c0.4-0.4,1.2-0.4,1.6-0.8c2.4-2,5.2-1.2,7.9-1.2c0.2,0,0.4,0.2,0.5,0.3l0.1,0.4c-0.1,0.3,0,0.6,0.2,0.9
		c0,1.1-0.2,2.2-0.5,3.2c-0.4,1-1.4,1.6-1.5,2.8c0,0.1-0.1,0.1-0.1,0.1c-1.3,0.4-1.5,1.8-2,2.7s0,1.5,1,1.5c0.4-0.1,0.7,0,1,0.3
		c0.7,0.8,0.6,2.1-0.2,2.8c-0.3,0.2-0.6,0.4-1,0.5c-3.5,0.5-7,1-10.6,1.3c-0.7,0.1-2-0.3-2,1.2c0,0.1-0.3,0.3-0.5,0.3
		c-0.6,0.2-1.3,0.3-2,0.2c-1-0.2-2-0.2-3-0.1c-0.4,0-0.8-0.1-1.3-0.2c-0.6-0.2-1.1-0.4-1.2-1.2s0.5-1,1-1.2c0.5-0.2,0.7-0.8,0.5-1.3
		c0,0,0,0,0,0c-0.6-2.4-0.7-4.8-0.2-7.2c0.1-1.4,0.7-2.7,1.7-3.6c0.3-0.3,0.4-0.6,0.2-1C15.9,23,16,22.6,16.2,22.4L16.2,22.4z"/>
	
		<radialGradient id="SVGID_7_" cx="35.92" cy="62.95" r="28.79" gradientTransform="matrix(1 0 0 -1 0 80)" gradientUnits="userSpaceOnUse">
		<stop  offset="0" style="stop-color:#16367D"/>
		<stop  offset="1" style="stop-color:#16153F"/>
	</radialGradient>
	<path class="st6" d="M20.2,25.3v-0.2C20.2,25.2,20.2,25.2,20.2,25.3z"/>
	<path class="st7" d="M84.6,28.1v4.1h4.3c0,0,0.1-0.1,0.3-0.3s0.5-0.4,0.6-0.4c0.3,0.1,0.6,0.3,0.8,0.5c0.3,0.2,0.4,0.3,0.4,0.4l0,0
		c0.4-0.2,0.9-0.4,1.3-0.6l0,0c-0.2-0.1-0.4-0.3-0.5-0.5c-0.3-0.3-0.5-0.6-0.6-1h-0.8l-0.3-0.5c0.7,0.1,1.5,0.1,2.2,0.1h1.8l0.3-0.3
		l0.1-0.1c-0.4,0-0.6,0-0.6-0.1c-0.4-0.1-0.5-0.4-0.5-0.9v-0.6h-1.2c-0.1,0.6-0.4,1.1-0.9,1.4c-0.4,0.2-0.9,0.4-1.4,0.4l-0.1-0.1
		c0.7-0.3,1.1-1,1-1.8c0-0.3,0-0.6-0.1-0.8c0.6,0.1,1.2,0.3,1.7,0.5h0.8l0.4-0.3c0.1-0.1,0.3-0.2,0.4-0.2c0.3,0.1,0.5,0.2,0.8,0.3
		c0.3,0.2,0.5,0.4,0.5,0.5s-0.1,0.2-0.3,0.3s-0.3,0.2-0.3,0.3s0,0.2,0.1,0.3c0.2,0,0.3,0.1,0.5,0h0.3c0.2,0,0.3-0.1,0.4-0.2l0.4-0.6
		h0.2l0.1,0.2c0,0.2,0.1,0.4,0.2,0.5c0.2,0.2,0.3,0.3,0.3,0.4s-0.2,0.4-0.5,0.5c-0.4,0.1-0.9,0.2-1.3,0.2l0.4,0.2
		c0.4,0.3,0.6,0.5,0.6,0.5s-0.2,0.1-0.4,0.2c-0.2,0-0.4,0-0.5,0.1c-0.3,0.4-0.7,0.7-1.1,0.9l0,0c0.9,0.2,1.8,0.3,2.7,0.4L97,32
		c-0.3,0.1-0.5,0.2-0.7,0.5c0.1,0.1,0.2,0.2,0.4,0.3c0.4,0.3,0.6,0.5,0.6,0.6s-0.1,0.2-0.3,0.2h-5v1h1.8l0.5-0.3
		c0.1-0.1,0.3-0.2,0.5-0.3c0.3,0.1,0.6,0.2,0.9,0.4c0.5,0.3,0.8,0.5,0.8,0.7s-0.1,0.2-0.3,0.4s-0.3,0.3-0.3,0.4v0.4l0.1,2.4
		c0,0.2-0.3,0.3-0.8,0.3h-0.5c-0.3,0-0.4-0.1-0.4-0.3v-0.2h-8.7v0.2c0,0.2-0.3,0.3-0.7,0.3h-0.5c-0.4,0-0.5-0.1-0.5-0.3
		c0-0.2,0.1-0.5,0.1-0.8v-2.7c0-0.3,0-0.6-0.1-1c0.6,0.1,1.3,0.3,1.9,0.6h1.7c0-0.3,0.1-0.5,0.1-0.8v-0.3h-2.8c-0.9,0-1.6,0-2,0.1
		l-0.3-0.5c0.7,0.1,1.5,0.1,2.2,0.1h10.1c0.2-0.1,0.3-0.3,0.5-0.4l0,0c-0.2,0-0.4-0.1-0.6-0.1c-0.6-0.1-1.1-0.3-1.6-0.6l-0.4,0.2
		c-0.9,0.3-1.9,0.5-2.9,0.6l-0.1-0.2c0.3-0.1,0.6-0.2,0.9-0.3h-6v0.2c0,0.2-0.2,0.3-0.7,0.3h-0.4c-0.3,0-0.4-0.1-0.4-0.4
		s0-0.8,0-1.2v-2.7c0-0.5,0-1.1,0-1.6c0.6,0.2,1.3,0.3,1.9,0.6h3.4l0.3-0.3c0.3-0.3,0.5-0.4,0.6-0.4c0.3,0.1,0.5,0.3,0.8,0.5
		c0.3,0.2,0.4,0.3,0.4,0.4s-0.1,0.2-0.2,0.2H86l0.6,0.1c0.3,0.1,0.5,0.2,0.5,0.3s-0.1,0.1-0.3,0.1s-0.3,0-0.3,0.1l-0.1,0.1H88
		c0.1-0.1,0.2-0.1,0.3-0.2c0.1-0.1,0.3-0.2,0.5-0.3c0.2,0.1,0.4,0.2,0.6,0.4c0.2,0.1,0.3,0.3,0.3,0.3s-0.1,0.2-0.2,0.2h-1.6
		c0,0.3,0,0.6-0.1,0.9h0.5c0.1-0.1,0.2-0.2,0.3-0.3c0.1-0.1,0.3-0.2,0.4-0.3c0.2,0.1,0.4,0.2,0.6,0.3c0.3,0.2,0.4,0.4,0.4,0.4
		s-0.1,0.2-0.2,0.2h-2.1c0,0.1-0.1,0.1-0.1,0.1c0.4,0,0.9,0.1,1.3,0.2c0.3,0.1,0.4,0.2,0.4,0.3c0,0.2-0.1,0.4-0.3,0.5
		c-0.1,0.1-0.3,0.2-0.5,0.2c-0.2,0-0.4-0.1-0.5-0.3c-0.2-0.2-0.4-0.4-0.6-0.6c-0.1,0.1-0.2,0.2-0.3,0.3c-0.2,0.2-0.5,0.4-0.8,0.5
		c-0.5,0.2-1.1,0.4-1.6,0.4L84.7,32c0.3-0.1,0.6-0.3,0.9-0.4c0.2-0.1,0.4-0.3,0.6-0.5c0.1-0.2,0.2-0.4,0.3-0.6c-0.7,0-1.2,0-1.5,0.1
		l-0.3-0.5c0.6,0.1,1.2,0.1,1.8,0.1c0-0.2,0-0.5,0.1-0.9h-0.7l-0.1,0.1c-0.3,0.2-0.6,0.4-0.9,0.5l-0.1-0.1c0.2-0.3,0.3-0.5,0.5-0.8
		c0.1-0.3,0.2-0.5,0.3-0.8L84.6,28.1z M94.2,36.9v-0.5h-2.3c-0.3,0-0.7,0-1-0.2c-0.2-0.1-0.4-0.3-0.4-0.5V35H89
		c0,0.1-0.1,0.2-0.1,0.3c-0.3,0.4-0.7,0.6-1.1,0.8c-0.6,0.3-1.2,0.5-1.8,0.6l-0.2-0.2c0.3-0.1,0.6-0.3,0.9-0.6
		c0.3-0.2,0.5-0.5,0.6-0.7c0-0.1,0.1-0.1,0.1-0.2h-1.8v1.9L94.2,36.9z M94.2,38v-0.8h-8.6V38H94.2z M90.5,33.6h-1.3v0.3
		c0,0.3,0,0.5-0.1,0.8h1.4V33.6z M92.7,31c0.2,0.1,0.3,0.2,0.5,0.2c0.4-0.3,0.7-0.6,1-0.9h-2.5C91.9,30.6,92.3,30.8,92.7,31z
		 M92,35.5c0,0.1,0.1,0.2,0.3,0.2h1.9V35H92V35.5z"/>
	<path class="st7" d="M104.4,27.6c0.4,0.3,0.6,0.5,0.6,0.6s-0.2,0.2-0.4,0.2s-0.6,0.2-0.6,0.2c-0.5,1-1.2,1.9-1.9,2.7
		c0.6,0.4,1.1,0.8,1.6,1.3c0.2,0.3,0.4,0.6,0.5,0.9c0.1,0.3,0.2,0.7,0.2,1c0,0.4-0.1,0.7-0.3,1c-0.2,0.3-0.5,0.5-0.8,0.6
		c-0.2,0.1-0.4,0.2-0.7,0.2c-0.1,0-0.2-0.1-0.3-0.4s-0.5-0.6-1.2-0.8v3.3c0,0.2-0.3,0.3-0.8,0.4h-0.5c-0.3,0-0.5-0.1-0.5-0.4
		c0-0.5,0.1-0.9,0.1-1.4V29c0-0.6,0-1.3-0.1-1.9c0.8,0.2,1.5,0.4,2.3,0.7h0.8c0.2-0.2,0.4-0.4,0.6-0.6c0.1-0.1,0.3-0.2,0.5-0.2
		C103.7,27.1,104.1,27.3,104.4,27.6z M101.1,34.8c0.3,0.1,0.7,0.1,1,0.1c0.2,0,0.4,0,0.5-0.1c0.1-0.2,0.2-0.4,0.2-0.7
		c0-0.5-0.1-0.9-0.3-1.4c-0.3-0.5-0.6-1-1-1.4c0.4-1,0.8-2.1,1-3.2h-1.3L101.1,34.8z M106.3,33.2h4.4c0.2-0.1,0.4-0.3,0.5-0.5
		c0.4-0.4,0.6-0.6,0.7-0.6c0.4,0.1,0.7,0.3,0.9,0.6c0.4,0.4,0.7,0.6,0.7,0.7s-0.1,0.2-0.3,0.2h-2.8V37c0,0.3,0.1,0.4,0.2,0.4
		c0.2,0,0.4,0,0.7,0c0.2,0,0.4-0.1,0.6-0.2c0.2-0.5,0.4-1.1,0.6-1.7h0.3l0.1,0.9c0,0.3,0.1,0.6,0.4,0.8c0.2,0.2,0.4,0.4,0.4,0.5
		c0,0.2-0.1,0.4-0.4,0.5c-0.6,0.2-1.3,0.3-1.9,0.3h-0.9c-0.3,0-0.6,0-0.9-0.1c-0.5,0-0.9-0.4-0.8-0.9c0,0,0-0.1,0-0.1v-4h-1
		c0,0.8-0.2,1.5-0.5,2.2c-0.2,0.4-0.5,0.9-0.8,1.2c-0.4,0.4-0.9,0.7-1.4,0.9c-0.8,0.4-1.6,0.7-2.4,0.9l-0.2-0.3
		c0.5-0.2,1-0.5,1.4-0.8c0.4-0.3,0.8-0.7,1.2-1.1c0.3-0.4,0.5-0.8,0.7-1.2c0.2-0.6,0.3-1.2,0.3-1.8c-0.7,0-1.2,0-1.5,0l-0.2-0.5
		C104.8,33.1,105.5,33.1,106.3,33.2z M109.3,27.3c0.4,0,0.6,0.1,0.6,0.3s-0.1,0.1-0.4,0.2s-0.4,0.2-0.4,0.3v0.9h1.6
		c0.2-0.2,0.4-0.3,0.5-0.4c0.1-0.2,0.3-0.3,0.5-0.3c0.4,0.1,0.8,0.3,1.1,0.6c0.5,0.3,0.8,0.6,0.8,0.7s-0.1,0.2-0.4,0.2
		c-0.2,0-0.3,0-0.5,0c-0.5,0.3-1.1,0.6-1.7,0.8l0,0c0.4,0.3,0.6,0.5,0.6,0.6s-0.1,0.2-0.3,0.2H107c-0.9,0-1.6,0-2,0l-0.3-0.5
		c0.7,0.1,1.5,0.2,2.3,0.2h2.2c0.2-0.1,0.3-0.3,0.5-0.5c0.2-0.2,0.4-0.4,0.6-0.5c0.1,0,0.2,0,0.3,0.1c0.2-0.3,0.3-0.6,0.4-0.9h-5.5
		c0,0.3-0.1,0.6-0.1,0.7c-0.1,0.3-0.3,0.5-0.5,0.7c-0.1,0.1-0.3,0.1-0.5,0.1c-0.3,0-0.6-0.1-0.8-0.2c-0.2-0.1-0.3-0.3-0.3-0.5
		c0-0.1,0.2-0.2,0.5-0.4c0.3-0.1,0.6-0.3,0.9-0.5c0.2-0.2,0.4-0.5,0.5-0.9l0.3,0c0,0.3,0,0.5,0,0.7h1.8v-0.8c0-0.4,0-0.7-0.1-1.1
		C108,27.1,108.7,27.2,109.3,27.3z"/>
	<g class="st8">
		<path d="M69,55.1h5.6L82,65.9V55.1h5.7v19.5H82l-7.3-10.7v10.7H69V55.1z"/>
		<path d="M90.3,55.1h18.3v4.8h-6.1v14.7h-6V59.9h-6.2V55.1z"/>
		<path d="M124,55.1h6v11.6c0,1.1-0.2,2.2-0.5,3.3c-0.4,1-0.9,1.9-1.7,2.7c-0.7,0.7-1.5,1.3-2.4,1.6c-1.4,0.5-2.8,0.7-4.2,0.7
			c-1,0-2.1-0.1-3.1-0.2c-1-0.1-1.9-0.4-2.8-0.8c-0.8-0.4-1.5-1-2.1-1.7c-0.6-0.6-1-1.4-1.3-2.2c-0.3-1.1-0.5-2.2-0.6-3.3V55.1h6V67
			c-0.1,0.9,0.3,1.8,0.9,2.5c1.4,1.2,3.5,1.2,4.9,0c0.6-0.7,1-1.6,0.9-2.5V55.1z"/>
		<path d="M146.9,66.6l5.3,1.6c-0.3,1.3-0.9,2.6-1.7,3.7c-0.7,1-1.7,1.7-2.8,2.3c-1.4,0.5-2.8,0.8-4.3,0.8c-1.8,0.1-3.5-0.2-5.2-0.9
			c-1.5-0.7-2.7-1.8-3.5-3.2c-1-1.8-1.6-3.9-1.5-5.9c0-3.2,0.9-5.7,2.6-7.4c1.7-1.7,4.1-2.6,7.3-2.6c2-0.1,4.1,0.4,5.8,1.5
			c1.5,1.1,2.6,2.7,3.1,4.6l-5.3,1.2c-0.1-0.5-0.3-0.9-0.6-1.3c-0.3-0.4-0.7-0.8-1.2-1.1c-1.7-0.8-3.7-0.3-4.8,1.3
			c-0.6,1.2-0.9,2.5-0.8,3.8c0,2.2,0.3,3.6,1,4.4c1.4,1.5,3.8,1.6,5.4,0.2C146.3,68.6,146.7,67.6,146.9,66.6z"/>
		<path d="M155.1,55.1h6v6.8h6.6v-6.8h6v19.5h-6v-7.9h-6.6v7.9h-6V55.1z"/>
	</g>
	<path class="st9" d="M69,54.1h5.6L82,64.9V54.1h5.7v19.5H82l-7.3-10.7v10.7H69V54.1z"/>
	<path class="st10" d="M90.3,54.1h18.3v4.8h-6.1v14.7h-6V58.9h-6.2V54.1z"/>
	<path class="st11" d="M124,54.1h6v11.6c0,1.1-0.2,2.2-0.5,3.3c-0.4,1-0.9,1.9-1.7,2.7c-0.7,0.7-1.5,1.3-2.4,1.6
		c-1.4,0.5-2.8,0.7-4.2,0.7c-1,0-2.1-0.1-3.1-0.2c-1-0.1-1.9-0.4-2.8-0.8c-0.8-0.4-1.5-1-2.1-1.7c-0.6-0.6-1-1.4-1.3-2.2
		c-0.3-1.1-0.5-2.2-0.6-3.3V54.1h6V66c-0.1,0.9,0.3,1.8,0.9,2.5c1.4,1.2,3.5,1.2,4.9,0c0.6-0.7,1-1.6,0.9-2.5V54.1z"/>
	<path class="st12" d="M146.9,65.6l5.3,1.6c-0.3,1.3-0.9,2.6-1.7,3.7c-0.7,1-1.7,1.7-2.8,2.3c-1.4,0.5-2.8,0.8-4.3,0.8
		c-1.8,0.1-3.5-0.2-5.2-0.9c-1.5-0.7-2.7-1.8-3.5-3.2c-1-1.8-1.6-3.9-1.5-6c0-3.2,0.9-5.7,2.6-7.4s4.1-2.6,7.3-2.6
		c2-0.1,4.1,0.4,5.8,1.5c1.5,1.1,2.6,2.7,3.1,4.6l-5.3,1.2c-0.1-0.5-0.3-0.9-0.6-1.3c-0.3-0.4-0.7-0.8-1.2-1.1
		c-1.7-0.8-3.7-0.3-4.8,1.3c-0.6,1.2-0.9,2.5-0.8,3.8c0,2.2,0.3,3.6,1,4.4c1.4,1.5,3.8,1.6,5.4,0.2
		C146.3,67.6,146.7,66.6,146.9,65.6z"/>
	<path class="st13" d="M155.1,54.1h6v6.8h6.6v-6.8h6v19.5h-6v-7.9h-6.6v7.9h-6V54.1z"/>
	<polygon class="st14" points="53.8,53.4 46,53.4 46,44.9 36.1,44.9 36.1,53.4 28.3,53.4 28.3,63.2 36.1,63.2 36.1,71.1 46,71.1 
		46,63.2 53.8,63.2 	"/>
	<path class="st10" d="M123.5,20.2l-5.1,1.4c-0.3,0.8-0.5,1.7-0.7,2.6c1.2,0,2.3,0.2,3.5,0.4l-0.2,2.6c-1.1-0.2-2.3-0.3-3.4-0.4
		c0,0.9,0.5,1.8,1.3,2.2c1.1,0.6,2.4,0.9,3.6,0.9c1.4,0.1,2.7-0.3,3.9-1c0.4-0.3,0.7-0.9,0.8-1.4c-1.2-0.1-2.3-0.3-3.4-0.5l0.3-2.6
		c1.1,0.1,2.2,0.2,3.2,0.3c0-0.6-0.2-1.2-0.6-1.7c-0.3-0.2-0.7-0.3-1.1-0.3c-0.4,0-1.1,0-2,0.1l0.2-2.9c0.8,0,1.5-0.1,2.2-0.1
		c1.1,0,2.1,0.5,2.8,1.3c0.9,1.4,1.2,3,1.1,4.7c0,2.4-0.5,4.1-1.6,5.1c-0.5,0.4-1,0.7-1.6,0.9c-0.2,0.9-0.3,1.9-0.4,2.8
		c0,1,0.3,1.5,0.9,1.5c0.9-0.2,1.7-0.5,2.5-0.8l0.3,2.6c-1,0.5-2.2,0.7-3.3,0.8h-0.4c-0.8,0-1.4-0.4-1.9-1.1
		c-0.5-0.7-0.7-1.5-0.7-2.3c0-1,0.1-2,0.3-3c-0.6,0.1-1.2,0.1-1.8,0.1c-0.9,0-1.7-0.1-2.6-0.3c-0.7,2-1.3,4.2-1.9,6.5l-2.3-1
		c0.6-2.4,1.2-4.5,1.8-6.4c0,0,0,0-0.1,0c-1.5-0.9-2.3-2.5-2.3-4.7c0-1.8,0.2-3.5,0.7-5.2l-0.4-1.8c2.5-0.8,5-1.5,7.2-2.1
		L123.5,20.2z"/>
	<path class="st10" d="M141.1,19c1.8-0.1,3.7-0.1,5.6-0.1l0.1,2.2c-0.9,0-1.8,0-2.7,0c-0.1,0.5-0.2,0.9-0.3,1.4c1.2,0,2.4,0,3.6,0
		l0.1,2c-4.8,0-9.6,0.3-14.5,0.8l-0.1-2c1.1-0.1,2.2-0.2,3.4-0.3c-0.1-0.4-0.2-0.9-0.3-1.3l-2.2,0.2l-0.1-2.2c1.6-0.2,3.3-0.3,5-0.5
		c-0.2-0.4-0.3-0.8-0.4-1.2l2-1.1C140.5,17.6,140.7,18.3,141.1,19z M136.6,25.8c1.6-0.3,3.2-0.4,4.8-0.5c1,0,2.1,0,3.1,0.2
		c0.9,0.1,1.7,0.6,2.3,1.2c0.6,0.8,0.9,1.7,0.8,2.7v0.3c0,0.8-0.3,1.5-0.9,2c-0.8,0.8-2.5,1.2-5.3,1.2H141c0,0.2,0,0.5,0,0.7
		c1.5,0,3.1-0.1,4.6-0.1l0.1,1.9c-1.6,0-3.1,0-4.5,0.1c0,0.3,0,0.6,0.1,0.9c2-0.1,4.1-0.2,6.2-0.3l0.1,2.1
		c-4.7,0.3-9.4,0.5-14.2,0.6l-0.1-2.1c1.9,0,3.7-0.1,5.6-0.2c0-0.3,0-0.6,0-0.9c-1.5,0.1-3,0.2-4.3,0.3l-0.1-1.9
		c1.4-0.1,2.9-0.2,4.3-0.3c0-0.3,0-0.5-0.1-0.8c-1.2,0-2.3-0.2-3.4-0.6c-1.2-0.4-2-1.6-2-2.9c0.1-1.5,0.7-3,1.8-4.2L136.6,25.8z
		 M138,27.6c-0.8,0.1-1.6,0.3-2.4,0.5c-0.1,0.1-0.1,0.2-0.1,0.4h2.6C138.1,28.2,138,27.8,138,27.6z M138.3,30h-2.5
		c0.2,0.2,0.4,0.4,0.7,0.5c0.6,0.2,1.2,0.4,1.9,0.4C138.3,30.7,138.3,30.4,138.3,30L138.3,30z M141.8,22.6c0.1-0.5,0.2-0.9,0.3-1.4
		c-1.3,0-2.6,0.1-3.8,0.2c0.1,0.4,0.2,0.9,0.4,1.3L141.8,22.6z M140.4,27.3c0,0.3,0.1,0.7,0.1,1.1h2.9l-0.1,1.6h-2.7
		c0,0.3,0,0.7,0.1,1h0.1c0.8,0,1.7,0,2.5-0.1c0.5,0,0.9-0.2,1.3-0.5c0.3-0.2,0.5-0.6,0.4-1c0.1-0.8-0.3-1.5-1-1.9
		c-1-0.2-2-0.3-3.1-0.3L140.4,27.3z"/>
	<path class="st10" d="M159,17.9l-0.1,2.1l-3.5-0.3c-0.1,0.3-0.2,0.5-0.3,0.8c0.4,0,0.8,0.1,1.2,0.1l0,0l0,0
		c0.9,0.1,1.8,0.1,2.7,0.2l-0.1,1.6l-1.8-0.2c-0.2,0.3-0.4,0.6-0.5,0.9c0.7,0,1.4,0,2.2-0.1l0.1,1.6c-1,0-2,0.1-3.1,0.1
		c0.8,0.3,1.6,0.6,2.4,1l-0.2,1l1.4-0.3l0.3,2c-1.6,0.3-3.1,0.5-4.7,0.6h-0.4c-1.1,0.1-2.2-0.4-3-1.2c-0.7-0.8-1.1-1.8-1-2.8
		c0-1.9,0.3-3.8,0.6-5.7c-0.2,0-0.3,0-0.5,0l0.2-2C153.7,17.4,156.4,17.6,159,17.9z M165,23.5c0.3,0.3,0.5,0.8,0.5,1.2
		c0,0.6-0.3,1.2-0.7,1.6c-0.2,0.3-0.4,0.5-0.7,0.7c0.7,0.2,1.5,0.4,2.2,0.4l-0.4,1.9c-1.2,0-2.5-0.3-3.6-0.8c-0.5,0.4-1,0.8-1.5,1.2
		l4.9,0.4l-0.1,1.7c-1.9-0.1-3.7-0.2-5.4-0.3c0,0.2-0.1,0.5-0.1,0.7c1.4-0.1,2.7,0.2,4,0.6c1.1,0.4,1.6,1.3,1.6,2.8V36
		c0.1,0.9-0.3,1.8-1.1,2.3c-1,0.4-2.1,0.6-3.2,0.6h-6.3c-1.1,0.1-2.2-0.1-3.2-0.7c-0.7-0.7-1-1.6-0.9-2.5c0-1.2,0.4-2.5,1-3.5
		l1.5,0.4c0.8-0.1,1.5-0.2,2.3-0.2c0-0.4,0-0.7,0.1-1c-1.6-0.1-3.1-0.2-4.6-0.3l0.2-1.7c3,0.1,6,0.3,8.9,0.5l-0.4-1.5
		c0.3-0.2,0.6-0.5,0.8-0.7c-0.3-0.2-0.6-0.4-0.8-0.6l0.3-1.2l-0.9,0.5l-0.3-1.9c1.4-0.7,2.9-1.1,4.5-1.2
		C164.1,23.1,164.6,23.2,165,23.5z M155.1,25.8c-0.3,0.5-0.5,0.9-0.7,1.4l0,0l0,0l-1-1.3c0.2-0.4,0.4-0.8,0.6-1.1
		c-0.3,0-0.6,0-0.9,0l-0.1-1.6c0.6,0,1.2,0,1.8,0c0.2-0.4,0.4-0.7,0.6-1.1c-0.3,0-0.5,0-0.8,0c-0.1,0.3-0.1,0.5-0.2,0.7l-1.3-0.4
		c0.2-1,0.4-1.9,0.8-2.8l-0.8-0.1c-0.4,1.5-0.6,3.1-0.7,4.6c0,0.8,0.2,1.6,0.6,2.3c0.3,0.5,0.8,0.8,1.4,0.8l0,0c0.1,0,0.2,0,0.3,0
		c1-0.1,1.9-0.2,2.9-0.4C156.7,26.4,155.9,26.1,155.1,25.8L155.1,25.8z M160,36l-1.6-0.2c0-0.7,0-1.4,0-2h-0.9
		c0,0.7-0.1,1.4-0.1,2.1l-1.6-0.2c0-0.6,0-1.2,0-1.8l-2.4,0.3c-0.1,0.2-0.1,0.4-0.1,0.6l0,0l1.8,0.2l-0.1,1.5l-1.7-0.2
		c0,0.2,0,0.3,0.1,0.5c0.1,0.2,0.2,0.3,0.4,0.3h6.8c0.8,0,1.6,0,2.3-0.2c0.3-0.5,0.5-1.1,0.4-1.7c0-0.5-0.3-0.9-0.7-1.1
		c-0.9-0.3-1.8-0.4-2.8-0.4C160,34.6,160,35.3,160,36z M158.6,31.3c-0.3,0-0.7,0-1,0c0,0.3,0,0.6,0,0.9c0.3,0,0.6,0,1,0
		C158.6,31.8,158.6,31.6,158.6,31.3z M161.1,17.8c0.7-0.3,1.4-0.5,2.1-0.6c1,0,1.5,0.6,1.6,1.7c0,0.2-0.1,0.4-0.2,0.5
		c-0.1,0.3-0.2,0.7-0.3,1c0,0.3,0.1,0.4,0.4,0.4c0.5,0,1-0.1,1.5-0.4l0.2,1.9c-0.7,0.5-1.6,0.7-2.5,0.7c-0.9,0-1.3-0.5-1.3-1.6
		c0-0.5,0.1-1,0.3-1.5c0-0.1,0.1-0.1,0.1-0.2c0-0.2-0.2-0.4-0.5-0.4c-0.4,0.1-0.9,0.3-1.3,0.5c0.1,1,0.1,2,0.2,3.1l-1.7,0.2
		c-0.1-1.8-0.3-3.7-0.4-5.5l1.7-0.2C161.1,17.6,161.1,17.7,161.1,17.8L161.1,17.8z M162.3,26.2c0.5-0.4,0.9-0.8,1.3-1.2
		c0-0.1-0.1-0.2-0.4-0.2c-0.7,0.1-1.5,0.2-2.2,0.5C161.4,25.7,161.8,26,162.3,26.2L162.3,26.2z"/>
	<path class="st10" d="M173.4,21.9c0.5,0.8,0.8,1.7,0.8,2.6c0,1.2-0.3,2.4-0.9,3.4c0.9,0.8,1.4,1.9,1.4,3.1c0,1-0.3,2.1-1,2.9
		c-0.5,0.7-1.3,1.1-2.2,1.1c0.1,1,0.2,2,0.3,3.1l-2.1,0.3c-0.4-4.7-0.8-8.8-1.1-12.5l2.1-0.3c0.2,2.1,0.4,4.2,0.6,6.5
		c0.3,0,0.6-0.1,0.9-0.4c0.2-0.1,0.4-0.4,0.4-0.7c0-0.3-0.1-0.6-0.2-0.9c-0.1-0.2-0.4-0.4-0.6-0.5c-0.4-0.2-0.6-0.6-0.6-1
		c0-0.3,0.1-0.7,0.3-0.9c0.2-0.4,0.3-0.8,0.5-1.2c0.1-0.4,0.2-0.8,0.2-1.1c0-0.9-0.3-1.4-0.8-1.4c-0.9,0.1-1.7,0.5-2.3,1.1l-0.2-3
		c0.9-0.6,2-0.9,3.1-1C172.4,21,173,21.3,173.4,21.9z M180.3,19.3c0.5-0.1,0.9-0.1,1.4-0.1c0.7,0,1.5,0.3,1.9,0.9
		c0.5,0.6,0.8,1.4,0.8,2.3c-0.1,1.4-0.3,2.8-0.7,4.2l-1.7-0.4l-0.1,1.2c-1.8-0.1-3.6-0.2-5.4-0.3l0.2-2.7c1.7,0,3.4,0.1,5.2,0.3
		c0.1-0.4,0.2-0.8,0.2-1.3c0-0.9-0.5-1.3-1.6-1.3c-1.6,0.1-3.1,0.6-4.4,1.5c0.1,1.1,0.2,2.1,0.4,3.2l-2,0.3
		c-0.3-2.5-0.6-4.7-0.8-6.7l2-0.3c0,0.2,0,0.5,0.1,0.7c0.6-0.3,1.3-0.6,2-0.8c-0.2-0.5-0.4-1.1-0.6-1.7l2.1-1.1
		C179.6,17.9,179.9,18.6,180.3,19.3L180.3,19.3z M184.2,31.4c-0.7,0.1-1.4,0.2-2,0.2c-0.3,1-0.5,2-0.5,3c0,0.3,0,0.6,0.1,0.8
		c0.1,0.2,0.3,0.3,0.5,0.3c0.7-0.2,1.4-0.5,1.9-1l0.4,2.7c-0.7,0.5-1.6,0.9-2.5,1c-0.7,0.1-1.4-0.2-1.9-0.8
		c-0.5-0.6-0.7-1.4-0.7-2.1c0-1.2,0.1-2.5,0.4-3.7c-0.5,0-0.9,0.1-1.4,0.1c-0.4,2.2-0.6,4.4-0.7,6.5l-2.3-0.3c0-2.1,0.2-4.1,0.6-6.1
		c-0.4,0-0.7,0-1.1,0l-0.2-2.9c3-0.1,6-0.4,9.2-0.7L184.2,31.4z"/>
</g>
</svg>
