<?xml version="1.0" encoding="utf-8"?>
<!-- Generator: Adobe Illustrator 24.0.0, SVG Export Plug-In . SVG Version: 6.00 Build 0)  -->
<svg version="1.1" id="圖層_1" xmlns="http://www.w3.org/2000/svg" xmlns:xlink="http://www.w3.org/1999/xlink" x="0px" y="0px"
	 viewBox="0 0 128.3 65.2" style="enable-background:new 0 0 128.3 65.2;" xml:space="preserve">
<style type="text/css">
	.st0{fill:url(#SVGID_1_);}
	.st1{fill:url(#SVGID_2_);}
	.st2{fill:url(#SVGID_3_);}
	.st3{fill:url(#SVGID_4_);}
	.st4{fill:url(#SVGID_5_);}
	.st5{fill:url(#SVGID_6_);}
	.st6{fill:url(#SVGID_7_);}
	.st7{fill:#202B6D;}
	.st8{fill:#808080;}
	.st9{fill:#FFFFFF;}
</style>
<title>logo-ntuh</title>
<linearGradient id="SVGID_1_" gradientUnits="userSpaceOnUse" x1="0" y1="25.57" x2="128.31" y2="25.57" gradientTransform="matrix(1 0 0 -1 0 68)">
	<stop  offset="0" style="stop-color:#000000;stop-opacity:0"/>
	<stop  offset="0.5" style="stop-color:#000000"/>
	<stop  offset="1" style="stop-color:#000000;stop-opacity:0"/>
</linearGradient>
<rect y="41.4" class="st0" width="128.3" height="2"/>
<radialGradient id="SVGID_2_" cx="41.54" cy="18.92" r="13.79" gradientTransform="matrix(1 0 0 -1 0 68)" gradientUnits="userSpaceOnUse">
	<stop  offset="0.17" style="stop-color:#8CC63F"/>
	<stop  offset="1" style="stop-color:#006837"/>
</radialGradient>
<circle class="st1" cx="43" cy="51.6" r="13.6"/>
<radialGradient id="SVGID_3_" cx="35.92" cy="50.95" r="28.79" gradientTransform="matrix(1 0 0 -1 0 68)" gradientUnits="userSpaceOnUse">
	<stop  offset="0" style="stop-color:#16367D"/>
	<stop  offset="1" style="stop-color:#16153F"/>
</radialGradient>
<path class="st2" d="M45.5,19.8c-1.5,0.1-2.9-0.5-3.8-1.6c-0.4-0.4-0.4-1.1,0-1.5c0.1-0.1,0.2-0.2,0.4-0.2c0.5-0.3,1-0.4,1.5-0.4
	c2,0.1,4-0.5,5.7-1.7c0.7-0.4,1.6-0.3,2.3-0.6c0.6-0.3,1.1-0.8,1.4-1.4c1.1-2.2,0.5-4.4,0.7-6.6c0.1-1.1,0.1-2.1,0-3.2
	c0-0.6,0.2-0.8,0.8-0.8c0.7,0,1.4,0,2.1-0.1c0.5-0.1,1,0.1,1.2,0.6C58,5.5,57.1,8.7,57,12c1-0.3,2.1-0.5,3.1-0.8
	c0.1,0,0.3-0.1,0.4-0.2c1.3-0.6,2.6-1.1,3.9-1.8c0.5-0.2,1.1-0.4,1.3-1C65.8,8,66,7.9,66.3,7.9c1.2,0.1,2.6-0.6,3.7,0.3
	c0.5,0.5,1.2,0.1,1.7,0.5c0,0.7,0,1.4,0,2s-0.2,0.8-0.8,0.8c-1-0.1-2.1,0-3.1,0.3c-3,0.9-5.9,2-8.9,3c-0.7,0.2-1,0.9-1.8,0.9
	s-0.7,0.3-0.8,0.8c-0.1,1.2-0.5,2.3-1.1,3.3c-1,2.3-2,4.6-2.7,7c-0.1,0.3,0.1,0.8-0.3,1c-1.3,0.8-1.8,2.3-2.8,3.3
	c-0.5,0.6-1.2,1-2,1.3c-1.5,0.4-3.1,0.7-4.7,0.8c-0.5,0-1,0.2-1.6,0c-0.1-0.4,0.2-0.4,0.4-0.5c2.4-1.9,4.1-4.3,6.1-6.5
	c0.8-1,1.3-2.2,1.5-3.4c0.3-1.3,1-2.6,1.4-3.9c0.4-0.2,0.6-0.7,0.4-1.1c0,0,0,0,0-0.1c-0.1-0.2-0.3-0.3-0.5-0.3c0,0-0.1,0-0.1,0
	C48.8,18.3,47,18.7,45.5,19.8z"/>
<radialGradient id="SVGID_4_" cx="35.92" cy="50.95" r="28.79" gradientTransform="matrix(1 0 0 -1 0 68)" gradientUnits="userSpaceOnUse">
	<stop  offset="0" style="stop-color:#16367D"/>
	<stop  offset="1" style="stop-color:#16153F"/>
</radialGradient>
<path class="st3" d="M57.3,24.3c1.3-0.2,2.6-0.3,3.9-0.2c1.5,0.3,3.2,0.4,4.5,1.4c0.9,0.8,2,1.3,3.2,1.5c0,0.2,0.2,0.4,0.4,0.5
	c1,0.8,2.1,1.3,3.2,1.7c0.1,0,0.1,0,0.2,0c1.5,1.8,3,3.6,4.6,5.5c0.6,0.7,0.8,1.8,0.3,2.7c-0.6,1.4-2.1,2.2-3.6,2
	c-2.1,0.2-3.1-1.4-4.4-2.6c-1.5-1.4-2.5-3.4-4.3-4.5c-1.2-1.4-2.9-1.6-4.5-2.1l-0.4-0.2c-0.1-0.2-0.2-0.2-0.4-0.2
	c-1.7-0.8-3.3-2-4.5-3.4c0-0.4,0-0.8,0-1.3c0-0.5,0.3-0.6,0.6-0.7l0.4,0.1c0.2,0.2,0.3,0.1,0.5,0L57.3,24.3L57.3,24.3z"/>
<radialGradient id="SVGID_5_" cx="35.92" cy="50.95" r="28.79" gradientTransform="matrix(1 0 0 -1 0 68)" gradientUnits="userSpaceOnUse">
	<stop  offset="0" style="stop-color:#16367D"/>
	<stop  offset="1" style="stop-color:#16153F"/>
</radialGradient>
<path class="st4" d="M28.8,16.2c-1.5,1-2.8,2.2-4.6,2.6c-0.2,0-0.4,0.2-0.5-0.1c0-0.1,0.2-0.2,0.3-0.3c2.3-0.8,3.8-2.5,5.2-4.4
	c0.2-0.4,0.2-0.9-0.1-1.2c-0.3-0.3-0.7,0-1.1,0.2c-0.9,0.6-1.8,1.1-2.8,1.6c-2.4,1.3-4.7,2.8-6.8,4.4c-1.1,0.8-2.4,1.5-3.7,1.9
	c-1.6,0.4-3.2,1.1-4.5,2.1c-1.1,0.9-2.4,1.6-3.7,2.2c-1.4,0.5-2.9-0.3-3.4-1.7C3,23.2,3,22.9,3,22.6c0-1.2-0.3-2.5,0.8-3.5
	c0.3-0.4,0.8-0.7,1.4-0.6c2.1,0.3,4.1-0.5,5.5-2.1c1.6-1.6,3.6-2.8,4.9-4.7c1.2-1.7,2.8-3.1,4.1-4.7c1.2-1.3,1.8-3.1,1.5-4.9
	c-0.1-0.7-0.4-1.6,0.6-2l0.2-0.1L22.4,0L24,0.2l0.2,0.2c0,0.2,0.1,0.3,0.3,0.3l0.4,0.5c0.8,1,1.6,2,2.5,2.9c0.5,0.4,0.6,1.1,0.4,1.8
	C27,8,25.1,9,23.5,10c-2,1.3-4.1,2.4-6.3,3.3c-3,0.6-4.6,3.3-6.9,4.9c1-0.2,2-0.6,2.9-1.1l4.1-1.2c1.7-0.4,3.3-1,4.9-1.8
	c2.1-0.8,4.1-1.7,6-2.9c0.3-0.2,0.8-0.3,0.5-0.8s-0.3-1-0.4-1.5c0.2-0.7,1-0.3,1.4-0.8c1-0.1,1.6,0.6,2.3,1c0.4,0.5,0.9,0.8,1.5,1
	c1.9,0.5,3.1,2.4,2.8,4.3c0,0.9-0.4,1.5-1.5,1.5c-0.9-0.1-1.8-0.1-2.7,0c-1.1,0.1-2.2-0.3-3.2,0.3l0,0
	C28.9,16.1,28.8,16.1,28.8,16.2z"/>
<radialGradient id="SVGID_6_" cx="35.92" cy="50.95" r="28.79" gradientTransform="matrix(1 0 0 -1 0 68)" gradientUnits="userSpaceOnUse">
	<stop  offset="0" style="stop-color:#16367D"/>
	<stop  offset="1" style="stop-color:#16153F"/>
</radialGradient>
<path class="st5" d="M16.2,22.4c0.3,0,0.6,0,1,0c1.2,0,1.5,0.3,1.4,1.5c-0.4,0.5-0.6,1.1-0.7,1.7c-0.1,2.9-0.1,5.7,0.1,8.6
	c0,0.3,0,0.7,0.5,0.7c0.8,0,1.7,0.3,2.5-0.3c1.9-0.7,3.8-1.2,5.7-1.5c0.9,0,1.6-0.7,1.6-1.5c0-0.1,0-0.1,0-0.2
	c0.2-1.6,0.6-3.1,1.3-4.5l0,0l0.2-0.2c0.3-0.7,0.9-1.2,1.1-2c0.1-0.5,0-0.6-0.5-0.7c-1.2-0.1-2.4,0.1-3.4,0.7c-2.1,1-4,2.1-6,3.3
	C20.6,28,20.3,28.2,20,28s-0.2-0.6-0.1-0.9c0.3-0.6,0.4-1.2,0.3-1.9c0-0.1,0-0.1,0-0.2l0.1,0V25c0.3-0.1,0.6-0.2,0.9-0.2
	c1.9,0,3.7-0.7,5.1-2.1c0.4-0.4,1.2-0.4,1.6-0.8c2.4-2,5.2-1.2,7.9-1.2c0.2,0,0.4,0.2,0.5,0.3l0.1,0.4c-0.1,0.3,0,0.6,0.2,0.9
	c0,1.1-0.2,2.2-0.5,3.2c-0.4,1-1.4,1.6-1.5,2.8c0,0.1-0.1,0.1-0.1,0.1c-1.3,0.4-1.5,1.8-2,2.7s0,1.5,1,1.5c0.4-0.1,0.7,0,1,0.3
	c0.7,0.8,0.6,2.1-0.2,2.8c-0.3,0.2-0.6,0.4-1,0.5c-3.5,0.5-7,1-10.6,1.3c-0.7,0.1-2-0.3-2,1.2c0,0.1-0.3,0.3-0.5,0.3
	c-0.6,0.2-1.3,0.3-2,0.2c-1-0.2-2-0.2-3-0.1c-0.4,0-0.8-0.1-1.3-0.2c-0.6-0.2-1.1-0.4-1.2-1.2s0.5-1,1-1.2c0.5-0.2,0.7-0.8,0.5-1.3
	c0,0,0,0,0,0c-0.6-2.4-0.7-4.8-0.2-7.2c0.1-1.4,0.7-2.7,1.7-3.6c0.3-0.3,0.4-0.6,0.2-1C15.9,23,16,22.6,16.2,22.4L16.2,22.4z"/>
<radialGradient id="SVGID_7_" cx="35.92" cy="50.95" r="28.79" gradientTransform="matrix(1 0 0 -1 0 68)" gradientUnits="userSpaceOnUse">
	<stop  offset="0" style="stop-color:#16367D"/>
	<stop  offset="1" style="stop-color:#16153F"/>
</radialGradient>
<path class="st6" d="M20.2,25.3v-0.2C20.2,25.2,20.2,25.2,20.2,25.3z"/>
<path class="st7" d="M85.8,24.5V30H92c0.2-0.1,0.3-0.2,0.5-0.4c0.4-0.4,0.7-0.6,0.8-0.6c0.4,0.2,0.8,0.4,1.1,0.7
	c0.4,0.3,0.6,0.5,0.6,0.5v0c0.6-0.2,1.2-0.5,1.8-0.8l0,0c-0.3-0.2-0.5-0.4-0.7-0.6c-0.4-0.4-0.7-0.8-0.9-1.3l-1.1,0l-0.4-0.7
	c1,0.1,2.1,0.1,3.1,0.1h2.5l0.5-0.4l0.2-0.1c-0.3,0-0.6,0-0.9-0.1c-0.5-0.1-0.8-0.5-0.8-1.3v-0.9h-1.6c-0.1,0.8-0.6,1.6-1.3,2
	c-0.6,0.3-1.3,0.5-2,0.5l-0.1-0.1c0.9-0.4,1.5-1.4,1.4-2.4c0-0.4-0.1-0.8-0.2-1.1c0.8,0.2,1.7,0.4,2.4,0.7h1.2l0.6-0.5
	c0.2-0.1,0.4-0.2,0.6-0.3c0.4,0.1,0.8,0.2,1.1,0.4c0.5,0.3,0.7,0.5,0.7,0.7s-0.1,0.2-0.4,0.4s-0.5,0.3-0.5,0.4s0,0.3,0.2,0.3
	c0.2,0.1,0.5,0.1,0.7,0.1h0.5c0.2,0,0.4-0.1,0.6-0.3c0.1-0.2,0.3-0.5,0.5-0.9l0.3,0.1l0.1,0.3c0,0.2,0.1,0.5,0.3,0.6
	c0.3,0.3,0.4,0.4,0.4,0.5c0,0.3-0.3,0.5-0.8,0.6c-0.6,0.1-1.2,0.2-1.9,0.2l0.5,0.3c0.6,0.4,0.8,0.6,0.8,0.7s-0.2,0.2-0.6,0.2
	c-0.3,0-0.5,0-0.7,0.1c-0.4,0.5-0.9,0.9-1.5,1.3l0,0c1.3,0.3,2.6,0.4,3.9,0.5l-0.1,0.3c-0.4,0.1-0.7,0.3-0.9,0.7
	c0.1,0.1,0.3,0.3,0.5,0.4c0.5,0.4,0.8,0.7,0.8,0.8s-0.1,0.3-0.4,0.3h-7.1v1.4H99l0.7-0.5c0.2-0.2,0.4-0.3,0.7-0.3
	c0.5,0.1,0.9,0.3,1.3,0.5c0.7,0.4,1.1,0.7,1.1,0.9s-0.2,0.3-0.5,0.5s-0.4,0.4-0.4,0.5v0.6L102,39c0,0.2-0.4,0.3-1.2,0.4h-0.7
	c-0.4,0-0.6-0.2-0.6-0.5v-0.3H87.2V39c0,0.2-0.4,0.3-1.1,0.4h-0.7c-0.5,0-0.7-0.2-0.7-0.5c0.1-0.3,0.1-0.7,0.1-1v-3.8
	c0-0.4,0-0.8-0.1-1.4c0.9,0.2,1.8,0.5,2.7,0.8h2.4c0-0.3,0.1-0.7,0.1-1v-0.4H86c-1.3,0-2.3,0-2.8,0.1l-0.4-0.7
	c1.1,0.1,2.1,0.2,3.2,0.1h14.4c0.2-0.2,0.5-0.4,0.7-0.6l0,0c-0.3,0-0.5-0.1-0.8-0.2c-0.8-0.2-1.6-0.4-2.3-0.8l-0.6,0.2
	c-1.3,0.4-2.7,0.7-4.1,0.9L93.2,31c0.4-0.1,0.8-0.2,1.3-0.4h-8.6v0.2c0,0.2-0.3,0.4-1,0.5c-0.3,0-0.5,0-0.7,0
	c-0.4,0-0.6-0.2-0.6-0.5c0-0.5,0.1-1.1,0.1-1.6v-3.8c0-0.8,0-1.5-0.1-2.2c0.9,0.2,1.8,0.5,2.7,0.8h4.8l0.5-0.4
	c0.4-0.4,0.7-0.5,0.8-0.5c0.4,0.1,0.8,0.4,1.1,0.6c0.4,0.3,0.6,0.4,0.6,0.5c0,0.1-0.1,0.3-0.2,0.3c0,0,0,0-0.1,0h-6
	c0.3,0.1,0.6,0.1,0.8,0.2c0.5,0.1,0.7,0.3,0.7,0.4s-0.1,0.2-0.4,0.2c-0.2,0-0.3,0-0.4,0.1l-0.2,0.2h2.4l0.4-0.3
	c0.2-0.2,0.4-0.3,0.7-0.4c0.3,0.1,0.6,0.3,0.9,0.5c0.3,0.2,0.5,0.4,0.5,0.4c0,0.2-0.1,0.3-0.3,0.3h-2.2c0,0.5-0.1,0.9-0.1,1.2h0.7
	c0.2-0.1,0.3-0.2,0.5-0.4c0.2-0.2,0.4-0.3,0.6-0.4c0.3,0.1,0.6,0.2,0.8,0.5c0.4,0.3,0.6,0.5,0.6,0.6s-0.1,0.3-0.3,0.3h-3
	c0,0.1-0.1,0.1-0.1,0.2c0.6,0.1,1.3,0.2,1.9,0.3c0.4,0.1,0.6,0.3,0.6,0.4c0,0.3-0.2,0.6-0.4,0.7c-0.2,0.2-0.5,0.3-0.8,0.3
	c-0.3,0-0.5-0.2-0.7-0.4c-0.2-0.3-0.5-0.6-0.9-0.8c-0.1,0.1-0.2,0.3-0.3,0.4c-0.4,0.3-0.8,0.5-1.2,0.7c-0.8,0.3-1.6,0.5-2.4,0.6
	v-0.2c0.4-0.2,0.9-0.4,1.3-0.6c0.3-0.2,0.5-0.4,0.7-0.7c0.2-0.2,0.3-0.5,0.4-0.8c-1,0-1.7,0-2.2,0.1l-0.4-0.7
	c0.9,0.1,1.7,0.2,2.6,0.1c0-0.3,0.1-0.7,0.1-1.2h-1l-0.2,0.1c-0.4,0.3-0.9,0.5-1.3,0.7L86,26.7c0.3-0.3,0.5-0.7,0.7-1.1
	c0.2-0.4,0.3-0.7,0.4-1.1H85.8z M99.5,36.6V36h-3.3c-0.5,0-1-0.1-1.5-0.3c-0.3-0.1-0.5-0.4-0.5-0.8v-1H92c-0.1,0.1-0.1,0.2-0.2,0.4
	c-0.4,0.5-0.9,0.9-1.5,1.1c-0.8,0.4-1.7,0.7-2.6,0.8l-0.3-0.2c0.5-0.2,0.9-0.4,1.3-0.8c0.4-0.3,0.7-0.6,0.9-1c0-0.1,0.1-0.2,0.1-0.3
	h-2.5v2.6H99.5z M99.5,38.2v-1.1H87.2v1.1L99.5,38.2z M94.3,32.1h-1.9v0.4c0,0.3,0,0.7-0.1,1h2L94.3,32.1z M97.3,28.5
	c0.2,0.1,0.5,0.2,0.7,0.3c0.5-0.4,1-0.8,1.4-1.3h-3.6C96.3,27.9,96.8,28.3,97.3,28.5z M96.3,34.6c0,0.2,0.1,0.2,0.5,0.2h2.7V34h-3.2
	V34.6z"/>
<path class="st7" d="M114,23.8c0.6,0.4,0.9,0.7,0.9,0.8s-0.2,0.3-0.7,0.3s-0.8,0.2-0.9,0.3c-0.8,1.3-1.7,2.6-2.7,3.7
	c0.8,0.5,1.6,1.1,2.2,1.8c0.3,0.4,0.5,0.8,0.7,1.2c0.2,0.4,0.3,0.9,0.3,1.4c0,0.5-0.1,1-0.5,1.4c-0.3,0.4-0.7,0.6-1.1,0.8
	c-0.3,0.2-0.7,0.3-1,0.3c-0.2,0-0.3-0.2-0.4-0.6s-0.7-0.8-1.6-1.1v4.6c0,0.2-0.4,0.4-1.2,0.5h-0.7c-0.5,0-0.7-0.2-0.7-0.6
	c0-0.6,0.1-1.2,0.1-1.9V25.8c0-0.9-0.1-1.7-0.2-2.6c1.1,0.2,2.2,0.5,3.3,0.9h1.1c0.3-0.3,0.6-0.5,0.9-0.8c0.2-0.2,0.4-0.3,0.7-0.3
	C113,23.2,113.5,23.5,114,23.8z M109.3,33.8c0.5,0.1,0.9,0.1,1.4,0.1c0.3,0,0.5,0,0.8-0.2c0.2-0.3,0.2-0.6,0.2-0.9
	c0-0.7-0.1-1.3-0.4-1.9c-0.4-0.7-0.8-1.4-1.4-1.9c0.6-1.4,1.1-2.9,1.4-4.4h-1.9L109.3,33.8z M116.7,31.5h6.3
	c0.3-0.2,0.5-0.4,0.7-0.7c0.3-0.3,0.6-0.6,1-0.8c0.5,0.1,1,0.4,1.3,0.8c0.6,0.5,1,0.8,1,0.9s-0.2,0.3-0.5,0.3h-4v4.7
	c0,0.3,0.1,0.5,0.3,0.6c0.3,0,0.7,0,1,0c0.3,0,0.6-0.1,0.8-0.3c0.3-0.7,0.6-1.5,0.8-2.3l0.5,0.1l0,1.2c0,0.4,0.2,0.8,0.6,1.1
	c0.3,0.3,0.5,0.5,0.5,0.8c0,0.3-0.2,0.6-0.5,0.7c-0.9,0.3-1.8,0.5-2.7,0.4h-1.3c-0.4,0-0.9,0-1.3-0.2c-0.7,0-1.2-0.6-1.2-1.3
	c0,0,0,0,0-0.1V32h-1.4c-0.1,1-0.3,2.1-0.7,3c-0.3,0.6-0.7,1.2-1.2,1.7c-0.6,0.5-1.3,0.9-2,1.3c-1.1,0.5-2.3,0.9-3.5,1.2l-0.3-0.4
	c0.7-0.2,1.4-0.6,2-1c0.6-0.4,1.2-0.9,1.7-1.5c0.4-0.5,0.7-1.1,0.9-1.7c0.3-0.8,0.5-1.7,0.5-2.5c-0.9,0-1.6,0-2.1,0.1l-0.3-0.7
	C114.6,31.5,115.7,31.5,116.7,31.5L116.7,31.5z M121.1,23.4c0.6,0,0.9,0.1,0.9,0.3s-0.2,0.2-0.5,0.3s-0.6,0.3-0.6,0.5v1.2h2.3
	c0.3-0.2,0.6-0.4,0.8-0.6c0.2-0.2,0.4-0.4,0.7-0.4c0.6,0.2,1.1,0.4,1.5,0.8c0.7,0.5,1.1,0.8,1.1,1s-0.2,0.3-0.5,0.3
	c-0.2,0-0.5,0-0.7,0.1c-0.8,0.4-1.6,0.8-2.4,1.1l0,0c0.6,0.5,0.8,0.7,0.8,0.8s-0.1,0.3-0.4,0.3h-6.3c-1.3,0-2.3,0-2.8,0l-0.4-0.7
	c1.1,0.1,2.1,0.2,3.2,0.1h3.1c0.3-0.2,0.5-0.4,0.7-0.6c0.3-0.3,0.6-0.5,0.9-0.7c0.2,0,0.3,0.1,0.5,0.1c0.2-0.4,0.4-0.8,0.6-1.2h-7.8
	c0,0.3-0.1,0.7-0.1,1c-0.1,0.4-0.4,0.8-0.8,1c-0.2,0.1-0.4,0.2-0.7,0.2c-0.4,0-0.8-0.1-1.1-0.3c-0.3-0.1-0.4-0.4-0.4-0.7
	c0-0.1,0.2-0.3,0.7-0.6c0.5-0.2,0.9-0.4,1.3-0.8c0.3-0.3,0.6-0.7,0.7-1.2l0.4,0.1c0,0.4,0,0.7,0,0.9h2.6v-1.1c0-0.5-0.1-1-0.2-1.5
	C119.2,23.2,120.2,23.3,121.1,23.4L121.1,23.4z"/>
<path class="st8" d="M61,46.4h4.4l5.8,8.5v-8.5h4.5v15.3h-4.5l-5.7-8.4v8.4H61V46.4z"/>
<path class="st8" d="M77.7,46.4h14.4v3.8h-4.8v11.5h-4.7V50.2h-4.8V46.4z"/>
<path class="st8" d="M104.2,46.4h4.7v9.1c0,0.9-0.1,1.7-0.4,2.6c-0.3,0.8-0.7,1.5-1.3,2.1c-0.5,0.6-1.2,1-1.9,1.3
	c-1.1,0.4-2.2,0.5-3.3,0.5c-0.8,0-1.6-0.1-2.4-0.2c-0.8-0.1-1.5-0.3-2.2-0.6c-0.6-0.3-1.2-0.8-1.6-1.3c-0.5-0.5-0.8-1.1-1-1.8
	c-0.3-0.8-0.4-1.7-0.4-2.6v-9.1h4.7v9.3c-0.1,0.7,0.2,1.5,0.7,2c0.5,0.5,1.2,0.7,1.9,0.7c0.7,0,1.4-0.2,1.9-0.7
	c0.5-0.5,0.7-1.3,0.7-2L104.2,46.4z"/>
<path class="st8" d="M112,46.4h4.7v5.3h5.2v-5.3h4.8v15.3h-4.8v-6.2h-5.2v6.2H112V46.4z"/>
<polygon class="st9" points="51.7,48.5 46.3,48.5 46.3,42.7 39.7,42.7 39.7,48.5 34.3,48.5 34.3,55.1 39.7,55.1 39.7,60.5 
	46.3,60.5 46.3,55.1 51.7,55.1 "/>
</svg>
