<svg xmlns="http://www.w3.org/2000/svg" viewBox="0 0 1024 1024"><title>plurk</title><path d="M796.76,0H227.24C102.26,0,0,102.26,0,227.24V796.76C0,921.74,102.26,1024,227.24,1024H796.76c125,0,227.24-102.26,227.24-227.24V227.24C1024,102.26,921.74,0,796.76,0ZM216.57,438.07a36.36,36.36,0,0,1-11.84,14.12,36.92,36.92,0,1,1-22.63-67.07,36.87,36.87,0,1,1,60.25,9c2.9.62,5.15,3.36,9.36,4.57.31.09.59.14.89.21,8.58-22.28,20.7-40.42,34.21-51.93,12.38-10.54,25.91-15.56,38.94-12.95,33.41,6.69,50.81,60.51,38.86,120.22s-48.73,102.7-82.14,96c-23.46-4.7-39-32.65-42-69.52a168.27,168.27,0,0,1-.51-18A66.88,66.88,0,0,1,216.57,438.07Zm645.15-25.61c-6.48,14-23,30.42-32.07,38.75q2.39,13.28,3.59,26.92a301.88,301.88,0,0,1-36.66,173.19,8.91,8.91,0,0,0,1.6,10.84l7.89,7.49a27.29,27.29,0,0,1,1,38.47l-37.79,39.79-6.74-6.33A7.84,7.84,0,1,0,751.8,753l6.29,5.92.11.1c-.54.4-1.11.81-1.67,1.17a27.27,27.27,0,0,1-33.68-2.93l-4.91-4.67a9,9,0,0,0-11.38-.74,302.51,302.51,0,0,1-363-9.76,8.91,8.91,0,0,0-11.22,0l-7.73,6.28a27.29,27.29,0,0,1-38.28-4L251.05,701l1.1-.84,7.36-5.61A7.84,7.84,0,1,0,250,682.1l-6.87,5.23-1.52,1.16a28.76,28.76,0,0,1-1.78-4.27c-.05-.17-.11-.33-.17-.5a28.31,28.31,0,0,1-1-4.54,27.18,27.18,0,0,1,9.73-24.57l8.3-6.75A8.91,8.91,0,0,0,259,637a301.17,301.17,0,0,1-28.15-96.84c-.25-2.15-.49-4.3-.69-6.47-.19-2-.41-4-.56-6q-.49-6.61-.71-13.31c0-.59-.08-1.17-.09-1.77s0-1.46,0-2.2c-.07-4-.08-8,0-12,0-.52,0-1,0-1.56,0,.06,0,.11,0,.16,4,47.61,24.05,83.68,54.34,89.75,43.22,8.65,90.78-46.94,106.24-124.16s-7.05-146.83-50.27-155.48c-8.92-1.79-18-.74-27,2.61-.58.26-1.16.47-1.74.71a80.12,80.12,0,0,0-21.5,13.35l-.11.08c.21-.27.44-.53.64-.8,2.54-3.38,5.2-6.65,7.87-9.91,58.53-71.5,149.1-116,250.6-110.79,120.13,6.21,223,84.24,265.55,192,13.3,3,24.29-.39,38.58-5.71C870.41,381.85,868.67,397.38,861.72,412.46ZM277.05,510.79c21.77,4.35,45.73-23.65,53.51-62.54s-3.55-74-25.31-78.32c-8.49-1.7-17.3,1.57-25.37,8.44C273.71,383.63,268,391,263.18,400c9.51-.71,15.82-5.39,26.52-1.5,13.72,5,21.58,43.63,11.19,57.57-8.05,10.8-18.38,16.12-34.18,15.4a53,53,0,0,1-16.8-3.67C252.35,490.65,262.27,507.83,277.05,510.79Z" fill="#ff574d"/></svg>